SplineFontDB: 1.0
FontName: ItalicHand
FullName: ItalicHand
FamilyName: Italic
Weight: Medium
Copyright: The splines of this font are copyright © 1988 by George Williams.
Version: 001.000
ItalicAngle: -23
UnderlinePosition: -110
UnderlineWidth: 16
Ascent: 667
Descent: 333
NeedsXUIDChange: 1
FSType: 0
Encoding: iso8859_1
DisplaySize: -24
AntiAlias: 1
WinInfo: 0 16 16
BeginPrivate: 8
BlueValues 63 [-15.000 0.000 273.333 291.667 555.833 556.667 559.167 560.000]
BlueScale 11 0.363636364
StdHW 8 [70.000]
StdVW 8 [52.500]
StemSnapH 15 [43.333 70.000]
StemSnapV 15 [52.500 64.167]
ForceBoldThreshold 2 .5
ForceBold 5 false
EndPrivate
BeginChars: 329 253
StartChar: exclam
Encoding: 33 33
Width: 334
Flags: MW
HStem: 0 20
Fore
150 145 m 1
 105 190 l 1
 265 580 l 1
 310 540 l 1
 150 145 l 1
85 0 m 1
 40 45 l 1
 80 130 l 1
 125 90 l 1
 85 0 l 1
EndSplineSet
EndChar
StartChar: ampersand
Encoding: 38 38
Width: 531
Flags: MW
HStem: -3 20 168 43 472 31
Fore
333 188 m 1
 333 187 l 1
 321 193 307 198 289 197 c 0
 254 193 235 183 208 161 c 2
 180 138 l 1
 173 143 l 1
 200 167 l 2
 246 209 282 235 344 233 c 0
 382 232 403 213 442 211 c 0
 466 209 485 211 507 223 c 2
 540 241 l 1
 548 233 l 1
 511 210 l 2
 480 190 439 169 400 168 c 1
 398 158 l 1
 386 85 205 -7 117 -3 c 0
 53 1 -6 45 3 111 c 0
 12 174 59 217 120 244 c 1
 115 249 l 2
 75 289 66 333 90 378 c 0
 112 421 239 509 325 503 c 0
 364 501 366 476 394 478 c 2
 408 478 l 1
 356 454 l 2
 319 437 300 471 266 472 c 0
 224 475 162 438 151 395 c 0
 138 348 146 286 193 278 c 2
 208 276 l 2
 209 276 222 280 222 280 c 1
 225 273 l 1
 183 256 l 2
 125 232 82 193 73 139 c 1
 62 85 108 43 162 32 c 0
 243 14 345 113 336 172 c 1
 333 188 l 1
EndSplineSet
EndChar
StartChar: parenleft
Encoding: 40 40
Width: 198
Flags: MW
VStem: 17 55
Fore
116 -29 m 1
 106 -33 98 -35 88 -36 c 0
 38 -39 17 28 17 66 c 0
 15 183 74 291 255 413 c 2
 323 459 l 1
 312 439 l 1
 244 393 l 2
 98 292 70 192 72 122 c 0
 73 73 85 8 134 13 c 0
 142 13 147 15 154 18 c 1
 116 -29 l 1
EndSplineSet
EndChar
StartChar: parenright
Encoding: 41 41
Width: 248
Flags: MW
VStem: 182 55
Fore
138 434 m 1
 137 434 l 2
 147 438 155 440 166 441 c 0
 216 444 236 377 237 339 c 0
 239 222 179 114 -2 -8 c 2
 -69 -54 l 1
 -58 -34 l 1
 9 12 l 2
 155 113 183 213 182 283 c 0
 181 332 168 397 119 392 c 0
 112 392 106 390 99 387 c 1
 138 434 l 1
EndSplineSet
EndChar
StartChar: comma
Encoding: 44 44
Width: 326
Flags: W
Fore
-14 48 m 1
 40 131 l 1
 69 130 88 122 107 99 c 0
 129 74 130 49 127 16 c 0
 123 -26 98 -42 75 -77 c 2
 11 -176 l 1
 -2 -173 l 1
 43 -80 l 1
 53 -61 63 -50 62 -29 c 0
 62 -6 57 9 40 26 c 0
 24 42 8 48 -14 48 c 1
EndSplineSet
EndChar
StartChar: hyphen
Encoding: 45 45
Width: 363
Flags: MW
HStem: 183 40<72 318>
Fore
72 223 m 1
 338 223 l 1
 318 183 l 1
 48 183 l 1
 72 223 l 1
EndSplineSet
EndChar
StartChar: period
Encoding: 46 46
Width: 307
Flags: MW
HStem: 0 20
Fore
-19 60 m 1
 41 120 l 1
 98 60 l 1
 41 0 l 1
 -19 60 l 1
EndSplineSet
EndChar
StartChar: zero
Encoding: 48 48
Width: 328
Flags: MW
HStem: 313 20
VStem: 18 46<101.5 105.5> 243 48
Fore
64 116 m 0
 64 87 73 53 102 50 c 0
 118 48 129 50 143 58 c 2
 169 73 l 2
 213 99 243 182 243 223 c 0
 243 252 235 285 206 288 c 0
 191 290 180 292 168 283 c 2
 141 263 l 2
 90 224 64 158 64 116 c 0
173 65 m 2
 127 35 l 2
 104 20 93 6 66 5 c 0
 33 3 18 48 18 73 c 0
 18 138 70 231 137 277 c 2
 178 306 l 2
 200 321 216 332 242 333 c 0
 277 335 291 299 291 274 c 0
 291 209 251 116 173 65 c 2
EndSplineSet
EndChar
StartChar: one
Encoding: 49 49
Width: 241
Flags: HMW
HStem: -3 20 315 20<223 223>
Fore
156 293 m 1
 73 257 l 1
 72 265 l 1
 223 335 l 1
 224 332 l 1
 225 333 l 1
 228 325 l 1
 208 312 l 2
 198 305 192 300 187 290 c 0
 181 280 182 272 180 260 c 1
 153 125 l 1
 150 106 149 94 140 77 c 0
 123 44 100 31 67 15 c 2
 28 -3 l 1
 27 7 l 1
 55 22 l 2
 68 28 70 39 77 52 c 0
 88 72 89 87 93 110 c 2
 113 222 l 1
 116 237 115 247 122 260 c 0
 130 277 141 285 156 293 c 1
EndSplineSet
EndChar
StartChar: two
Encoding: 50 50
Width: 349
Flags: MW
HStem: -5 47 297 40
Fore
32 262 m 1
 27 268 l 1
 72 293 l 2
 114 317 138 337 188 337 c 0
 249 337 293 292 285 240 c 0
 276 179 234 122 168 83 c 2
 117 53 l 1
 143 58 l 2
 183 66 199 42 235 42 c 0
 254 41 268 37 283 47 c 2
 302 58 l 1
 310 52 l 1
 263 25 l 2
 237 10 219 -3 188 -5 c 0
 152 -7 129 7 92 7 c 0
 70 6 58 6 37 2 c 2
 8 -3 l 1
 7 3 l 1
 45 23 l 2
 135 70 213 146 212 223 c 0
 211 268 179 300 138 297 c 0
 114 295 98 298 77 287 c 2
 32 262 l 1
EndSplineSet
EndChar
StartChar: three
Encoding: 51 51
Width: 335
Flags: HMW
HStem: 322 20<149 196.5>
Fore
8 -147 m 1
 5 -137 l 1
 60 -105 l 2
 142 -58 208 10 217 78 c 0
 221 110 199 132 172 147 c 2
 153 157 l 1
 203 197 l 1
 212 203 210 213 210 223 c 0
 211 266 170 286 128 295 c 0
 101 301 77 299 58 287 c 2
 18 260 l 1
 15 267 l 1
 67 303 l 2
 102 328 128 342 170 342 c 0
 223 342 284 308 285 268 c 0
 286 241 281 217 257 203 c 2
 237 192 l 1
 255 178 l 2
 278 161 281 140 282 112 c 0
 282 17 168 -54 60 -117 c 2
 8 -147 l 1
EndSplineSet
EndChar
StartChar: four
Encoding: 52 52
Width: 477
Flags: MW
HStem: 328 20<270 270>
VStem: 265 68
Fore
250 70 m 1
 222 75 197 87 162 87 c 0
 118 86 92 81 50 68 c 2
 17 58 l 1
 10 70 l 1
 53 95 l 2
 102 123 131 142 160 190 c 0
 180 223 192 245 192 283 c 2
 192 313 l 1
 270 348 l 1
 272 327 l 1
 276 277 260 247 232 205 c 0
 208 171 189 155 153 133 c 2
 120 113 l 1
 140 118 l 2
 164 124 177 131 202 133 c 0
 223 136 241 130 257 123 c 1
 261 154 262 182 265 222 c 1
 333 258 l 1
 333 200 329 158 322 111 c 1
 324 111 325 112 327 112 c 0
 356 117 373 121 397 138 c 2
 430 162 l 1
 437 152 l 1
 400 127 l 2
 368 105 348 88 317 77 c 1
 315 65 313 52 310 38 c 0
 299 -16 292 -46 275 -98 c 1
 207 -135 l 1
 227 -61 236 -19 248 57 c 0
 249 61 250 66 250 70 c 1
EndSplineSet
EndChar
StartChar: five
Encoding: 53 53
Width: 400
Flags: HMW
HStem: 318 20<358 358>
Fore
88 298 m 1
 158 335 l 1
 201 315 230 311 278 315 c 0
 310 318 328 323 358 338 c 1
 370 332 l 1
 336 299 308 284 262 272 c 0
 220 262 192 262 150 273 c 1
 120 167 l 1
 155 178 l 2
 220 196 289 139 287 65 c 0
 286 -17 215 -71 132 -110 c 2
 32 -158 l 1
 20 -152 l 1
 105 -110 l 2
 166 -79 212 -37 215 28 c 0
 217 86 178 140 112 140 c 0
 95 140 82 140 67 130 c 2
 45 115 l 1
 37 125 l 1
 88 298 l 1
EndSplineSet
EndChar
StartChar: six
Encoding: 54 54
Width: 298
Flags: HMW
HStem: 0 20
VStem: 55 145
Fore
60 224 m 1
 57 207 55 191 55 172 c 0
 54 126 68 76 103 62 c 0
 146 46 202 129 200 193 c 0
 199 233 179 280 140 275 c 0
 104 271 84 256 62 227 c 2
 60 224 l 1
69 262 m 1
 85 278 l 2
 120 313 152 338 195 338 c 0
 244 337 259 277 255 227 c 0
 252 188 225 142 187 102 c 2
 142 55 l 2
 117 28 99 -2 65 0 c 0
 15 2 1 63 3 113 c 0
 5 217 68 360 178 470 c 2
 213 505 l 1
 220 497 l 1
 187 457 l 2
 133 390 90 330 69 262 c 1
EndSplineSet
EndChar
StartChar: seven
Encoding: 55 55
Width: 349
Flags: W
Fore
228 457 m 1
 228 458 226 456 226 456 c 2
 208 448 197 444 178 440 c 0
 138 432 112 432 73 444 c 2
 63 448 l 1
 33 430 l 1
 20 440 l 1
 117 503 l 1
 130 493 l 2
 141 484 171 482 187 483 c 0
 202 484 242 484 268 493 c 0
 269 493 292 515 292 515 c 1
 303 505 l 1
 273 475 l 2
 218 421 189 387 155 318 c 0
 117 239 112 187 100 100 c 2
 93 48 l 1
 25 2 l 1
 35 57 l 1
 50 142 49 194 85 272 c 0
 123 357 167 401 228 457 c 1
EndSplineSet
EndChar
StartChar: eight
Encoding: 56 56
Width: 342
Flags: HMW
HStem: -1 20
VStem: 172 122
Fore
293 437 m 0
 292 478 269 515 231 512 c 0
 205 509 171 448 172 405 c 0
 172 371 191 320 231 342 c 2
 256 355 l 2
 287 371 294 413 293 437 c 0
185 306 m 1
 177 305 168 306 161 308 c 2
 160 308 l 2
 122 308 70 212 72 148 c 0
 73 98 100 21 160 53 c 2
 197 73 l 2
 242 98 255 161 253 195 c 0
 251 247 227 295 185 306 c 1
229 328 m 1
 285 309 305 248 302 188 c 0
 298 130 263 97 213 67 c 2
 125 13 l 2
 54 -29 9 31 12 122 c 0
 14 177 67 286 143 322 c 1
 129 336 122 359 122 386 c 0
 122 433 188 534 258 530 c 0
 310 527 335 479 331 432 c 0
 327 392 301 372 267 351 c 2
 229 328 l 1
EndSplineSet
EndChar
StartChar: nine
Encoding: 57 57
Width: 298
Flags: HMW
HStem: 318 20
VStem: 69 145
Fore
208 113 m 1
 211 130 213 147 213 165 c 0
 214 212 200 262 166 275 c 0
 123 292 67 208 68 145 c 0
 69 104 89 58 128 63 c 0
 164 67 184 81 206 110 c 2
 208 113 l 1
199 76 m 1
 183 60 l 2
 148 25 117 -1 73 0 c 0
 24 1 9 61 13 110 c 0
 17 149 43 195 81 235 c 2
 126 283 l 2
 151 309 169 339 203 337 c 0
 253 335 267 275 266 225 c 0
 264 121 201 -23 91 -133 c 2
 56 -168 l 1
 48 -160 l 1
 81 -120 l 2
 136 -52 178 8 199 76 c 1
EndSplineSet
EndChar
StartChar: colon
Encoding: 58 58
Width: 307
Flags: MW
HStem: 0 20
Fore
-19 60 m 1
 41 120 l 1
 98 60 l 1
 41 0 l 1
 -19 60 l 1
46 260 m 1
 106 320 l 1
 163 260 l 1
 106 200 l 1
 46 260 l 1
EndSplineSet
EndChar
StartChar: semicolon
Encoding: 59 59
Width: 326
Flags: W
Fore
-14 48 m 1
 40 131 l 1
 69 130 88 122 107 99 c 0
 129 74 130 49 127 16 c 0
 123 -26 98 -42 75 -77 c 2
 11 -176 l 1
 -2 -173 l 1
 43 -80 l 1
 53 -61 55 -50 54 -29 c 0
 53 -6 57 9 40 26 c 0
 24 42 8 48 -14 48 c 1
66 260 m 1
 126 320 l 1
 183 260 l 1
 126 200 l 1
 66 260 l 1
EndSplineSet
EndChar
StartChar: question
Encoding: 63 63
Width: 334
Flags: MW
VStem: 48 65 258 60
Fore
53 469 m 1
 47 472 l 1
 59 488 l 2
 100 540 143 572 209 567 c 0
 268 562 322 514 318 453 c 0
 312 382 268 349 221 296 c 0
 178 248 116 196 113 165 c 0
 112 147 125 130 142 129 c 0
 157 128 166 133 179 141 c 2
 189 147 l 1
 193 140 l 1
 183 132 l 2
 151 103 115 78 88 80 c 0
 68 82 47 102 48 124 c 0
 53 184 145 229 207 301 c 1
 237 334 254 357 257 402 c 0
 262 457 223 509 167 514 c 0
 128 518 88 507 66 483 c 2
 53 469 l 1
31 21 m 1
 67 -15 l 1
 21 -61 l 1
 -15 -25 l 1
 31 21 l 1
EndSplineSet
EndChar
StartChar: A
Encoding: 65 65
Width: 602
Flags: MW
HStem: -5 20 163 46
VStem: 30 60
Fore
231 163 m 1
 213 163 l 2
 161 166 86 162 90 110 c 0
 92 83 104 63 128 53 c 0
 152 43 191 81 208 117 c 1
 231 163 l 1
415 195 m 1
 387 408 l 1
 286 206 l 1
 415 195 l 1
422 148 m 1
 414 149 406 149 397 150 c 2
 263 160 l 1
 250 135 l 2
 239 114 220 95 198 73 c 0
 160 36 116 -5 87 -5 c 0
 56 -5 29 29 30 58 c 0
 31 95 62 117 93 145 c 0
 143 191 156 216 253 208 c 1
 378 465 l 1
 420 502 l 1
 465 191 l 1
 489 190 505 196 530 202 c 0
 553 206 567 211 587 223 c 2
 627 248 l 1
 627 237 l 1
 588 208 l 2
 554 183 533 167 493 155 c 0
 485 152 478 151 471 150 c 1
 480 83 l 1
 482 72 479 60 490 55 c 0
 503 49 515 53 525 63 c 2
 540 78 l 1
 542 67 l 1
 518 47 l 2
 497 28 475 3 462 2 c 0
 436 0 437 36 433 62 c 1
 422 148 l 1
EndSplineSet
EndChar
StartChar: B
Encoding: 66 66
Width: 473
Flags: MW
HStem: -18 63 441 57<323 357 323 323>
Fore
63 -8 m 1
 62 -9 l 1
 62 4 l 1
 78 17 l 2
 99 32 104 48 117 71 c 0
 138 107 142 131 157 170 c 1
 225 353 l 2
 233 375 242 390 249 407 c 0
 255 422 263 430 273 441 c 1
 243 441 l 2
 215 441 195 441 170 433 c 0
 142 425 120 411 108 394 c 0
 88 366 121 351 155 369 c 2
 177 381 l 1
 148 342 l 2
 132 319 110 303 84 312 c 0
 70 318 56 324 55 339 c 0
 54 359 70 376 87 392 c 2
 112 416 l 2
 143 446 168 466 200 482 c 0
 228 497 248 498 280 498 c 2
 387 498 l 2
 427 498 489 470 485 426 c 0
 482 389 456 352 432 337 c 2
 403 318 l 1
 423 307 l 2
 453 289 479 235 467 188 c 0
 456 144 397 87 334 44 c 0
 283 10 249 -22 188 -18 c 0
 156 -17 141 6 109 4 c 0
 96 3 85 5 74 -2 c 2
 63 -9 l 1
 63 -8 l 1
323 441 m 1
 316 431 312 422 305 409 c 0
 294 389 288 377 280 356 c 2
 210 172 l 2
 199 143 193 128 178 102 c 0
 162 76 153 58 132 42 c 1
 147 44 162 44 181 44 c 0
 213 44 230 24 262 27 c 0
 321 33 382 92 398 160 c 0
 410 210 389 256 344 282 c 2
 325 292 l 1
 375 337 l 1
 392 327 l 1
 402 332 l 2
 420 343 422 360 427 380 c 0
 435 418 388 441 357 441 c 2
 323 441 l 1
EndSplineSet
EndChar
StartChar: C
Encoding: 67 67
Width: 346
Flags: MW
HStem: 9 53 451 46
VStem: 47 59
Fore
268 107 m 1
 207 46 l 2
 181 20 159 11 123 9 c 0
 69 7 46 78 47 119 c 0
 49 224 133 376 238 455 c 0
 274 481 303 494 345 497 c 0
 364 498 373 485 392 483 c 0
 400 483 406 479 412 482 c 2
 419 486 l 1
 424 479 l 1
 408 468 l 2
 388 453 374 443 349 440 c 0
 325 437 313 451 288 451 c 0
 273 451 266 456 249 443 c 0
 176 388 104 255 106 179 c 0
 107 127 121 65 173 62 c 0
 199 60 217 67 235 85 c 2
 265 115 l 1
 268 107 l 1
EndSplineSet
EndChar
StartChar: D
Encoding: 68 68
Width: 516
Flags: MW
HStem: -18 63 441 57<323 357 323 323>
Fore
63 -8 m 1
 62 -9 l 1
 62 4 l 1
 78 17 l 2
 99 32 104 48 117 71 c 0
 138 107 142 131 157 170 c 1
 225 353 l 2
 233 375 242 390 249 407 c 0
 255 422 263 430 273 441 c 1
 243 441 l 2
 215 441 195 441 170 433 c 0
 142 425 120 411 108 394 c 0
 88 366 121 351 155 369 c 2
 177 381 l 1
 148 342 l 2
 132 319 110 303 84 312 c 0
 70 318 56 324 55 339 c 0
 54 359 70 375 87 392 c 2
 111 416 l 2
 142 447 168 466 200 482 c 0
 228 497 248 498 280 498 c 2
 369 498 l 2
 579 498 508 307 467 188 c 0
 452 144 397 87 334 44 c 0
 283 10 249 -22 188 -18 c 0
 156 -17 141 6 109 4 c 0
 96 3 85 5 74 -2 c 2
 63 -9 l 1
 63 -8 l 1
323 441 m 1
 316 431 312 422 305 409 c 0
 294 389 288 377 280 356 c 2
 210 172 l 2
 199 143 193 128 178 102 c 0
 162 76 153 58 132 42 c 1
 147 44 162 44 181 44 c 0
 213 44 230 24 262 27 c 0
 321 33 372 96 398 160 c 0
 444 271 528 441 357 441 c 2
 323 441 l 1
EndSplineSet
EndChar
StartChar: E
Encoding: 69 69
Width: 334
Flags: HMW
HStem: -11 20 40 222 262 179
Fore
248 441 m 1
 222 441 203 440 180 433 c 0
 152 425 129 411 117 394 c 0
 98 366 132 351 165 369 c 2
 186 381 l 1
 158 342 l 1
 143 319 120 303 94 313 c 0
 80 318 66 324 65 339 c 0
 64 359 79 376 97 393 c 2
 121 416 l 2
 152 446 178 466 210 483 c 0
 238 497 258 497 290 497 c 2
 428 497 l 2
 433 497 436 494 438 490 c 0
 441 485 439 479 435 474 c 2
 377 411 l 1
 356 411 l 1
 385 441 l 1
 289 441 l 1
 220 263 l 1
 221 263 242 277 242 277 c 2
 259 287 268 303 288 303 c 0
 308 303 317 281 337 283 c 0
 346 284 352 286 358 293 c 1
 368 302 l 1
 377 294 l 1
 352 269 l 2
 335 252 320 242 299 242 c 0
 280 242 272 262 252 262 c 0
 243 261 236 260 227 254 c 2
 212 243 l 1
 177 150 l 2
 171 135 167 127 159 113 c 0
 147 93 136 81 119 62 c 2
 99 40 l 1
 177 40 l 2
 217 40 245 35 279 55 c 0
 301 68 319 73 316 108 c 2
 315 119 l 1
 348 156 l 1
 358 147 l 2
 368 138 359 109 350 99 c 0
 298 42 270 8 187 -6 c 0
 140 -14 111 -12 63 -6 c 2
 7 2 l 1
 42 41 l 1
 61 44 l 2
 79 47 90 50 100 74 c 0
 113 106 121 127 135 161 c 2
 248 441 l 1
EndSplineSet
EndChar
StartChar: F
Encoding: 70 70
Width: 313
Flags: HMW
HStem: -8 20 263 178
Fore
248 441 m 1
 222 441 203 440 180 433 c 0
 152 425 129 411 117 394 c 0
 98 366 132 351 165 369 c 2
 186 381 l 1
 158 342 l 1
 143 319 120 303 94 313 c 0
 80 318 66 324 65 339 c 0
 64 359 79 376 97 393 c 2
 121 416 l 2
 152 446 178 466 210 483 c 0
 238 497 258 497 290 497 c 2
 428 497 l 2
 433 497 436 494 438 490 c 0
 441 485 439 479 435 474 c 2
 377 411 l 1
 356 411 l 1
 385 441 l 1
 289 441 l 1
 220 263 l 1
 221 263 242 277 242 277 c 2
 259 287 268 303 288 303 c 0
 308 303 317 281 337 283 c 0
 346 284 352 286 358 293 c 1
 368 302 l 1
 377 294 l 1
 352 269 l 2
 335 252 320 242 299 242 c 0
 280 242 272 262 252 262 c 0
 243 261 236 260 227 254 c 2
 212 243 l 1
 177 150 l 2
 171 135 167 127 159 113 c 0
 147 93 136 81 119 62 c 2
 87 27 l 2
 74 13 67 1 48 -4 c 0
 37 -7 27 -11 17 -5 c 2
 7 2 l 1
 42 41 l 1
 59 34 l 2
 80 26 90 50 100 74 c 0
 113 106 121 127 135 161 c 2
 248 441 l 1
EndSplineSet
EndChar
StartChar: G
Encoding: 71 71
Width: 453
Flags: MW
HStem: -307 70 9 53 451 46
VStem: 47 59
Fore
218 -122 m 1
 207 -146 201 -159 187 -180 c 0
 169 -206 154 -217 129 -235 c 2
 79 -270 l 2
 56 -286 26 -306 9 -307 c 0
 -18 -308 -28 -278 -56 -280 c 0
 -68 -281 -76 -282 -86 -288 c 2
 -113 -306 l 1
 -119 -300 l 1
 -56 -262 l 2
 -33 -248 -23 -237 7 -237 c 0
 41 -237 54 -267 101 -243 c 0
 125 -231 135 -213 146 -188 c 2
 277 115 l 1
 207 46 l 2
 181 20 159 11 123 9 c 0
 69 7 46 78 47 119 c 0
 49 224 133 376 238 455 c 0
 274 481 303 494 345 497 c 0
 364 498 373 485 392 483 c 0
 400 483 406 479 412 482 c 2
 419 486 l 1
 424 479 l 1
 408 468 l 2
 388 453 374 443 349 440 c 0
 325 437 313 451 288 451 c 0
 273 451 266 456 249 443 c 0
 176 388 104 255 106 179 c 0
 107 127 121 65 173 62 c 0
 199 60 217 68 237 85 c 0
 264 108 272 132 275 146 c 1
 263 151 254 154 243 153 c 0
 222 153 208 153 192 140 c 2
 172 123 l 1
 167 130 l 1
 193 151 l 2
 220 172 233 193 267 200 c 0
 303 208 324 178 362 181 c 0
 384 182 401 178 417 193 c 2
 440 213 l 1
 441 203 l 1
 404 170 l 2
 387 154 378 141 355 133 c 0
 346 129 333 128 324 129 c 1
 218 -122 l 1
EndSplineSet
AlternateSubs: 0 'swsh' G.swash
Substitution: 0 'MSLI' G.swash
EndChar
StartChar: H
Encoding: 72 72
Width: 543
Flags: MW
HStem: -1 49<135 137> 221 44 597 70
VStem: 95 52
Fore
245 218 m 1
 178 203 112 143 110 98 c 0
 109 73 123 48 147 48 c 0
 181 48 201 107 216 143 c 1
 245 218 l 1
451 244 m 1
 552 482 l 2
 563 507 574 522 588 542 c 0
 606 568 621 577 646 595 c 2
 696 630 l 2
 719 646 749 666 766 667 c 0
 793 668 803 638 831 640 c 0
 843 641 851 642 861 648 c 2
 888 666 l 1
 894 660 l 1
 831 622 l 2
 808 608 798 597 768 597 c 0
 734 597 721 627 674 603 c 0
 650 591 640 573 629 548 c 2
 497 242 l 1
 525 243 544 239 570 251 c 2
 619 274 l 1
 624 267 l 1
 552 228 l 2
 524 213 505 203 478 198 c 1
 433 93 l 2
 426 77 415 52 424 47 c 0
 429 43 437 51 442 57 c 1
 465 79 l 1
 471 73 l 1
 423 25 l 2
 403 6 379 -6 373 -2 c 0
 365 3 353 17 367 50 c 2
 429 194 l 1
 380 197 341 217 292 221 c 1
 259 139 l 2
 239 88 161 -1 113 -1 c 0
 80 0 53 19 52 57 c 0
 52 109 156 214 259 252 c 1
 343 460 l 1
 322 462 l 2
 293 466 277 470 249 470 c 0
 209 470 149 469 148 448 c 0
 146 418 178 415 196 425 c 2
 217 437 l 1
 189 398 l 1
 174 375 153 354 127 362 c 0
 110 368 96 378 96 395 c 0
 95 415 109 428 122 443 c 2
 147 474 l 2
 160 489 171 497 188 506 c 0
 228 526 304 522 366 513 c 2
 405 507 l 1
 308 263 l 1
 317 265 325 265 333 265 c 0
 378 264 410 251 451 244 c 1
EndSplineSet
EndChar
StartChar: I
Encoding: 73 73
Width: 193
Flags: HMW
HStem: -3 20
Fore
286 505 m 1
 148 153 l 2
 142 137 136 126 126 111 c 0
 115 95 109 86 95 72 c 2
 74 52 l 1
 185 52 l 1
 134 -2 l 1
 -7 -2 l 1
 32 50 l 1
 43 53 l 2
 49 54 56 61 61 68 c 0
 72 85 75 95 82 113 c 2
 224 464 l 1
 189 440 l 2
 181 434 177 431 169 423 c 0
 140 395 134 368 118 331 c 1
 90 262 l 2
 82 243 75 229 62 217 c 1
 48 202 35 196 17 185 c 2
 -3 173 l 1
 -6 180 l 1
 12 191 l 2
 24 199 28 207 35 218 c 0
 43 230 45 239 50 253 c 2
 78 325 l 2
 98 376 118 403 163 435 c 0
 183 449 200 464 244 485 c 2
 286 505 l 1
EndSplineSet
EndChar
StartChar: J
Encoding: 74 74
Width: 228
Flags: W
HStem: -158 58<-69 -36>
DStem: -211 -87 -211 -108 -241 -123 -230 -128 108 450 115 437 91 428 97 422 222 353 257 336 87 3 108 -28
Fore
246 401 m 0
 256 414 263 419 276 430 c 2
 291 443 l 1
 275 433 l 2
 259 424 247 425 229 423 c 0
 202 421 177 442 143 440 c 0
 132 439 123 443 115 437 c 2
 97 422 l 1
 91 428 l 1
 108 450 l 2
 131 478 146 502 181 504 c 0
 219 507 246 479 288 483 c 0
 312 486 326 488 347 498 c 2
 362 506 l 1
 362 491 l 1
 332 457 l 2
 317 441 304 432 292 414 c 0
 273 387 269 367 257 336 c 1
 108 -28 l 2
 84 -86 -1 -158 -69 -158 c 0
 -122 -158 -144 -102 -178 -100 c 0
 -191 -99 -201 -97 -211 -108 c 2
 -230 -128 l 1
 -241 -123 l 1
 -211 -87 l 2
 -191 -64 -175 -43 -145 -43 c 0
 -99 -43 -83 -99 -36 -100 c 0
 62 -102 59 -68 87 3 c 1
 222 353 l 2
 229 372 233 384 246 401 c 0
EndSplineSet
EndChar
StartChar: K
Encoding: 75 75
Width: 551
Flags: MW
HStem: 0 53<144 184> 444 57
Fore
239 223 m 1
 225 185 l 2
 215 158 208 141 193 116 c 0
 176 89 167 70 144 53 c 1
 214 53 l 1
 184 0 l 1
 59 0 l 1
 94 52 l 1
 114 52 l 1
 121 62 125 72 132 84 c 0
 153 120 157 144 172 183 c 1
 240 367 l 2
 248 388 257 404 264 421 c 0
 269 431 273 437 279 444 c 1
 258 444 l 2
 230 444 210 445 185 438 c 0
 157 429 135 414 123 398 c 0
 103 369 136 354 170 372 c 2
 192 384 l 1
 163 345 l 2
 147 322 125 307 99 316 c 0
 85 321 71 327 70 342 c 0
 69 362 85 378 102 396 c 1
 126 419 l 2
 157 450 183 469 215 486 c 0
 243 501 263 501 295 501 c 2
 377 501 l 1
 346 466 l 1
 345 465 l 1
 344 464 l 2
 333 449 329 438 320 423 c 0
 309 403 303 391 295 370 c 2
 242 230 l 1
 284 264 l 1
 309 271 l 2
 364 286 397 312 428 357 c 0
 447 385 461 410 467 447 c 1
 472 482 l 1
 532 509 l 1
 515 447 l 2
 498 384 469 351 420 309 c 0
 389 283 358 268 327 256 c 1
 360 244 374 216 399 189 c 0
 441 144 458 63 480 52 c 0
 488 48 491 40 501 46 c 2
 523 59 l 1
 525 49 l 1
 494 28 l 2
 478 16 467 1 446 2 c 0
 396 3 387 96 338 147 c 0
 314 172 276 229 239 223 c 1
EndSplineSet
EndChar
StartChar: L
Encoding: 76 76
Width: 276
Flags: MW
HStem: 598 70
Fore
95 53 m 1
 157 43 256 -67 369 -68 c 0
 412 -68 440 -69 477 -48 c 2
 542 -10 l 1
 544 -22 l 1
 484 -60 l 2
 437 -90 407 -108 352 -117 c 0
 221 -139 110 9 29 5 c 2
 29 5 10 8 -4 3 c 1
 -3 18 l 1
 15 27 l 2
 32 36 25 30 37 42 c 1
 46 49 63 73 77 107 c 1
 238 482 l 2
 249 508 260 522 274 543 c 0
 292 569 307 578 332 596 c 2
 382 631 l 2
 405 647 435 667 452 667 c 0
 479 669 489 639 517 641 c 0
 528 642 537 643 547 649 c 2
 574 667 l 1
 580 661 l 1
 517 623 l 2
 494 609 484 597 453 597 c 0
 420 597 407 628 360 604 c 0
 336 592 326 574 315 549 c 2
 135 125 l 2
 123 97 108 68 95 53 c 1
EndSplineSet
AlternateSubs: 0 'swsh' L.swash
Substitution: 0 'MSLI' L.swash
EndChar
StartChar: M
Encoding: 77 77
Width: 805
Flags: MW
HStem: 3 38 455 43
VStem: 25 53
Fore
338 411 m 1
 245 173 l 1
 212 87 148 2 83 2 c 0
 29 2 26 37 25 72 c 0
 24 119 87 149 122 172 c 2
 150 191 l 1
 150 178 l 1
 125 163 l 2
 94 144 77 118 77 83 c 0
 77 63 82 38 107 40 c 0
 148 43 149 51 180 130 c 2
 308 453 l 1
 248 454 l 2
 213 455 183 441 160 433 c 0
 133 424 110 411 98 394 c 0
 78 366 111 351 145 369 c 2
 167 381 l 1
 138 342 l 2
 122 319 100 303 74 312 c 0
 60 318 46 324 45 339 c 0
 44 359 60 375 77 392 c 2
 101 416 l 2
 132 447 158 466 190 482 c 0
 218 497 238 498 270 498 c 2
 367 498 l 1
 367 498 416 147 415 146 c 1
 533 470 l 1
 587 500 l 1
 593 505 l 1
 593 503 l 1
 596 505 l 1
 594 500 l 1
 648 103 l 2
 651 81 657 56 673 53 c 0
 687 51 697 57 708 65 c 2
 728 78 l 1
 733 72 l 1
 692 43 l 1
 670 29 652 6 632 9 c 0
 612 12 607 63 602 100 c 2
 560 408 l 1
 428 53 l 1
 429 48 l 1
 393 7 l 1
 338 411 l 1
EndSplineSet
AlternateSubs: 0 'swsh' M.swash
Substitution: 0 'MSLI' M.swash
EndChar
StartChar: N
Encoding: 78 78
Width: 595
Flags: MW
HStem: -4 38 441 57<292 323> 597 70
VStem: 34 53
Fore
323 441 m 1
 324 441 256 441 256 441 c 2
 228 441 207 440 183 433 c 0
 156 426 132 410 121 394 c 0
 101 366 133 351 167 369 c 2
 189 381 l 1
 161 342 l 2
 145 320 123 303 97 312 c 0
 83 318 68 324 67 339 c 0
 67 359 83 376 100 392 c 1
 123 416 l 2
 154 447 181 467 212 482 c 0
 241 497 261 498 292 498 c 2
 389 498 l 1
 389 498 452 97 452 96 c 1
 617 482 l 1
 628 506 639 522 653 542 c 0
 671 568 687 578 711 595 c 2
 761 630 l 2
 783 646 814 666 831 667 c 0
 858 668 868 639 896 640 c 0
 907 640 917 642 926 648 c 2
 953 666 l 1
 959 660 l 1
 896 622 l 2
 873 608 863 597 833 597 c 0
 799 597 786 627 739 603 c 0
 715 591 705 573 694 548 c 2
 466 11 l 1
 472 -30 l 1
 481 -82 504 -118 570 -122 c 0
 610 -125 640 -124 670 -98 c 1
 722 -50 l 1
 735 -60 l 1
 683 -107 l 2
 633 -153 592 -191 528 -178 c 0
 475 -167 431 -137 423 -83 c 1
 350 386 l 1
 268 173 l 2
 235 88 157 -4 93 -4 c 0
 38 -4 35 31 34 66 c 0
 33 112 108 148 145 172 c 2
 173 191 l 1
 173 178 l 1
 148 163 l 2
 118 145 87 112 87 76 c 0
 87 57 92 32 117 33 c 0
 158 35 172 51 202 130 c 1
 323 441 l 1
EndSplineSet
AlternateSubs: 0 'swsh' N.swash
Substitution: 0 'MSLI' N.swash
EndChar
StartChar: O
Encoding: 79 79
Width: 428
Flags: MW
VStem: 58 55 410 56
Fore
113 166 m 0
 114 117 127 62 176 57 c 0
 200 54 214 64 235 76 c 2
 278 101 l 2
 352 143 411 275 410 345 c 0
 409 394 398 448 348 454 c 0
 323 458 306 453 287 438 c 2
 241 405 l 2
 155 343 112 236 113 166 c 0
289 98 m 2
 221 53 l 2
 188 31 169 10 129 8 c 0
 79 6 57 73 58 110 c 0
 61 207 136 348 237 417 c 2
 297 458 l 2
 331 481 353 498 394 500 c 0
 445 502 467 448 466 411 c 0
 463 313 406 175 289 98 c 2
EndSplineSet
EndChar
StartChar: P
Encoding: 80 80
Width: 408
Flags: MW
HStem: 0 53<137 178> 444 57
Fore
325 444 m 1
 321 438 318 431 313 423 c 0
 303 402 296 391 288 370 c 2
 218 185 l 2
 208 158 201 141 186 116 c 0
 169 89 160 70 137 53 c 1
 208 53 l 1
 178 0 l 1
 52 0 l 1
 87 52 l 1
 107 52 l 1
 114 62 121 71 127 84 c 0
 145 122 150 144 165 183 c 1
 233 367 l 2
 241 388 250 404 257 421 c 0
 262 431 267 437 273 444 c 1
 252 444 l 2
 223 444 203 445 178 438 c 0
 151 429 128 414 117 398 c 0
 97 369 129 354 163 372 c 2
 185 384 l 1
 157 345 l 2
 140 322 118 307 93 316 c 0
 78 321 64 327 63 342 c 0
 62 362 78 378 96 396 c 2
 119 419 l 2
 150 450 177 469 208 486 c 0
 237 501 257 501 288 501 c 2
 370 501 l 2
 499 501 479 325 400 249 c 0
 358 209 321 208 268 212 c 2
 235 215 l 1
 275 260 l 1
 297 258 l 2
 388 247 407 268 414 331 c 0
 427 443 348 445 325 444 c 1
EndSplineSet
EndChar
StartChar: Q
Encoding: 81 81
Width: 436
Flags: MW
VStem: 59 55 410 56
Fore
146 68 m 1
 153 70 162 72 170 73 c 0
 187 76 203 73 218 67 c 1
 224 69 229 72 235 76 c 2
 278 101 l 2
 352 143 411 275 410 345 c 0
 409 394 398 448 348 454 c 0
 323 458 306 453 287 438 c 2
 241 405 l 2
 155 343 112 236 113 166 c 0
 114 128 122 88 146 68 c 1
232 61 m 1
 277 36 312 -14 355 -10 c 0
 373 -9 383 1 397 13 c 2
 413 28 l 1
 418 18 l 1
 390 -5 l 2
 360 -30 338 -44 300 -48 c 0
 254 -53 218 12 161 15 c 1
 152 12 142 9 129 8 c 0
 123 8 117 9 111 11 c 1
 90 7 72 -3 53 -20 c 2
 25 -47 l 1
 17 -37 l 1
 38 -13 l 2
 54 4 68 19 83 32 c 1
 66 54 58 87 58 110 c 0
 61 207 136 348 237 417 c 2
 297 458 l 2
 331 481 353 498 394 500 c 0
 445 502 467 448 466 411 c 0
 463 313 406 175 289 98 c 2
 232 61 l 1
EndSplineSet
EndChar
StartChar: R
Encoding: 82 82
Width: 543
Flags: MW
HStem: 0 53<116 136 166 206> 444 57
Fore
136 53 m 1
 136 52 l 1
 142 62 147 72 154 84 c 0
 175 120 179 144 193 183 c 1
 262 367 l 2
 270 388 279 404 286 421 c 0
 290 431 295 437 301 444 c 1
 280 444 l 2
 252 444 232 445 207 438 c 0
 179 429 157 414 145 398 c 0
 125 369 158 354 192 372 c 2
 213 384 l 1
 185 345 l 2
 169 322 147 307 121 316 c 0
 107 321 92 327 92 342 c 0
 91 362 107 378 124 396 c 2
 147 419 l 2
 178 450 205 469 237 486 c 0
 265 501 285 501 317 501 c 2
 398 501 l 2
 528 501 516 325 433 252 c 0
 399 222 411 231 399 225 c 1
 406 216 412 208 416 198 c 2
 457 96 l 2
 463 81 470 67 486 68 c 0
 493 68 499 70 504 76 c 2
 513 88 l 1
 521 80 l 1
 488 43 l 2
 474 27 466 12 446 13 c 0
 427 13 415 26 408 42 c 2
 351 180 l 2
 347 189 344 196 337 202 c 0
 332 205 329 212 307 215 c 1
 348 260 l 1
 371 258 l 2
 411 253 435 262 442 331 c 0
 454 433 375 443 353 444 c 1
 349 438 346 431 342 423 c 0
 331 402 325 391 317 370 c 2
 247 185 l 1
 236 158 229 141 214 116 c 0
 198 89 188 70 166 53 c 1
 236 53 l 1
 206 0 l 1
 81 0 l 1
 116 53 l 1
 136 53 l 1
EndSplineSet
EndChar
StartChar: S
Encoding: 83 83
Width: 473
Flags: HMW
HStem: -16 20
Fore
235 23 m 0
 316 21 376 97 375 178 c 0
 374 278 157 202 157 313 c 0
 157 366 313 483 392 496 c 0
 421 501 437 467 468 467 c 0
 485 467 498 464 511 474 c 2
 528 487 l 1
 537 484 l 1
 489 451 l 2
 457 429 433 422 394 420 c 0
 361 418 342 441 309 434 c 0
 262 425 216 371 216 353 c 0
 217 268 446 323 444 216 c 0
 442 130 357 48 257 7 c 0
 216 -10 187 -16 145 -16 c 0
 97 -16 52 7 46 54 c 0
 39 103 81 129 126 152 c 2
 193 185 l 1
 195 173 l 1
 167 161 l 2
 139 149 120 133 114 104 c 0
 103 48 178 25 235 23 c 0
EndSplineSet
EndChar
StartChar: T
Encoding: 84 84
Width: 367
Flags: MW
HStem: -5 20
Fore
415 418 m 1
 312 155 l 1
 302 131 292 120 275 100 c 0
 258 80 247 70 225 57 c 2
 212 48 l 1
 240 53 l 2
 255 56 263 47 278 47 c 0
 291 47 297 47 310 50 c 2
 330 55 l 1
 270 -2 l 1
 247 3 l 2
 234 6 228 7 215 7 c 0
 201 7 193 3 178 0 c 2
 155 -5 l 1
 175 42 l 1
 195 53 l 2
 219 67 227 86 242 110 c 0
 254 130 259 143 268 165 c 2
 374 426 l 1
 318 437 268 451 213 448 c 0
 157 444 91 358 130 330 c 0
 139 323 138 309 157 317 c 2
 180 328 l 1
 150 258 l 1
 125 245 l 2
 100 232 68 267 72 295 c 0
 83 372 161 483 270 495 c 0
 386 507 461 452 572 460 c 0
 609 462 644 459 672 487 c 2
 692 508 l 1
 700 500 l 1
 683 480 l 2
 615 403 506 409 445 415 c 0
 435 416 425 418 415 418 c 1
EndSplineSet
AlternateSubs: 0 'swsh' T.swash T.swash2
Substitution: 0 'MSWI' T.alt
EndChar
StartChar: U
Encoding: 85 85
Width: 419
Flags: HMW
HStem: -3 20
Fore
318 167 m 1
 434 450 l 1
 496 485 l 1
 344 103 l 2
 336 82 317 45 354 45 c 0
 364 45 371 44 379 50 c 2
 398 63 l 1
 401 55 l 1
 357 23 l 2
 337 9 326 -4 299 -3 c 0
 256 -2 271 52 284 83 c 2
 284 83 305 135 305 134 c 1
 229 62 l 2
 193 28 170 3 119 0 c 0
 79 -3 59 66 83 128 c 0
 124 230 240 446 177 442 c 0
 153 440 140 424 120 410 c 2
 92 390 l 1
 90 403 l 1
 157 455 l 2
 188 480 230 514 247 502 c 0
 338 438 31 43 169 48 c 0
 198 48 217 62 237 83 c 2
 318 167 l 1
EndSplineSet
EndChar
StartChar: V
Encoding: 86 86
Width: 523
Flags: HMW
HStem: -5 20
VStem: 333 185
Fore
73 3 m 1
 138 70 l 2
 209 144 251 220 253 308 c 0
 253 365 236 441 187 440 c 0
 167 440 152 440 135 427 c 2
 107 407 l 1
 100 418 l 1
 143 450 l 2
 179 478 206 500 253 500 c 0
 321 500 335 429 332 370 c 0
 329 276 303 225 245 155 c 2
 160 52 l 1
 298 123 l 2
 381 165 434 207 475 285 c 0
 501 334 514 367 518 423 c 1
 520 463 l 1
 605 503 l 1
 605 460 l 2
 605 398 583 364 552 310 c 0
 489 197 413 155 297 100 c 2
 77 -5 l 1
 73 3 l 1
EndSplineSet
EndChar
StartChar: W
Encoding: 87 87
Width: 794
Flags: HMW
HStem: -13 20
Fore
142 0 m 1
 208 78 281 156 281 277 c 0
 281 343 280 448 201 448 c 0
 182 448 170 445 153 435 c 2
 111 410 l 1
 106 423 l 1
 163 460 l 2
 199 484 228 505 269 505 c 0
 332 505 363 416 363 347 c 0
 363 209 228 60 228 60 c 1
 322 112 382 140 453 235 c 0
 485 278 514 355 523 395 c 2
 531 440 l 1
 613 475 l 1
 621 428 630 386 630 339 c 0
 630 248 587 148 550 90 c 2
 510 44 l 1
 591 98 l 1
 654 141 696 222 713 253 c 0
 742 306 773 448 773 448 c 1
 863 480 l 1
 837 359 815 283 736 187 c 24
 647 80 441 -13 441 -13 c 1
 428 -5 l 1
 451 18 l 2
 483 50 494 77 511 120 c 0
 525 157 535 184 535 219 c 0
 535 233 531 268 531 268 c 1
 511 237 l 2
 484 197 460 183 423 152 c 0
 350 91 161 -3 161 -3 c 1
 142 0 l 1
EndSplineSet
AlternateSubs: 0 'swsh' W.alt
Substitution: 0 'MSLI' W.swash
EndChar
StartChar: X
Encoding: 88 88
Width: 809
Flags: MW
HStem: -168 63 435 58
Fore
446 185 m 1
 446 186 310 35 310 35 c 2
 224 -60 27 -164 -62 -167 c 0
 -125 -170 -161 -147 -217 -115 c 2
 -247 -98 l 1
 -164 -40 l 1
 -117 -65 l 2
 -61 -94 -23 -107 41 -105 c 0
 157 -101 231 -17 295 55 c 2
 431 207 l 1
 432 207 335 360 335 360 c 2
 311 398 292 433 248 435 c 0
 219 436 203 427 180 410 c 2
 128 372 l 1
 120 382 l 1
 212 447 l 2
 243 469 268 494 297 493 c 0
 336 490 359 470 380 438 c 1
 380 438 486 270 486 269 c 2
 560 352 l 2
 601 398 692 468 800 467 c 0
 822 467 835 461 855 450 c 2
 878 438 l 1
 833 390 l 1
 810 407 l 2
 792 422 778 427 755 432 c 0
 680 449 634 394 583 338 c 2
 583 338 501 247 500 247 c 1
 577 125 l 2
 601 88 625 53 667 60 c 0
 683 63 692 66 705 75 c 2
 757 113 l 1
 763 103 l 1
 670 38 l 2
 645 20 624 -3 600 -2 c 0
 568 -2 550 20 533 47 c 2
 446 185 l 1
EndSplineSet
EndChar
StartChar: Y
Encoding: 89 89
Width: 351
Flags: W
DStem: 166 463 128 421 103 418 106 404 294 222 278 185 237 166 227 135 392 455 463 502 294 222 197 -138 398 -236 408 -243 377 -252 337 -296
Fore
294 222 m 1
 392 455 l 1
 463 502 l 1
 197 -138 l 1
 184 -168 175 -185 157 -211 c 0
 150 -222 140 -233 129 -245 c 1
 189 -243 215 -281 262 -279 c 0
 308 -278 331 -289 377 -252 c 2
 398 -236 l 1
 408 -243 l 1
 337 -296 l 2
 303 -321 278 -329 235 -333 c 0
 189 -338 166 -312 120 -312 c 0
 87 -312 67 -320 40 -325 c 1
 30 -333 l 1
 -17 -333 l 1
 29 -260 l 1
 33 -260 l 1
 62 -256 l 2
 69 -255 75 -253 81 -253 c 1
 83 -251 85 -248 88 -246 c 1
 111 -222 117 -202 129 -172 c 1
 129 -172 279 185 278 185 c 2
 227 135 l 2
 194 104 165 86 122 83 c 0
 89 82 70 138 91 189 c 0
 125 274 212 437 160 433 c 0
 147 432 139 429 128 421 c 2
 106 404 l 1
 103 418 l 1
 166 463 l 2
 189 479 218 506 231 497 c 0
 308 442 65 136 173 134 c 0
 201 134 217 147 237 166 c 2
 294 222 l 1
EndSplineSet
EndChar
StartChar: Z
Encoding: 90 90
Width: 481
Flags: MW
HStem: -5 20
Fore
321 243 m 2
 306 212 297 194 274 168 c 0
 257 149 247 140 228 124 c 2
 175 82 l 1
 217 89 l 2
 230 91 238 92 252 92 c 0
 297 92 323 58 368 68 c 0
 384 72 393 73 406 82 c 2
 433 103 l 1
 446 93 l 1
 391 53 l 2
 354 26 327 13 281 8 c 0
 229 2 203 39 151 33 c 0
 124 29 111 23 86 13 c 2
 43 -5 l 1
 43 20 l 1
 111 57 l 2
 139 73 156 83 178 107 c 0
 203 134 210 153 226 185 c 2
 263 258 l 2
 279 289 287 308 309 334 c 0
 323 351 332 360 348 373 c 2
 414 426 l 1
 389 418 l 2
 379 415 373 416 363 415 c 0
 295 408 273 447 218 433 c 0
 202 429 190 428 176 418 c 2
 148 397 l 1
 136 407 l 1
 191 447 l 2
 228 474 253 487 299 492 c 0
 351 499 379 461 431 467 c 0
 457 471 471 477 496 487 c 2
 538 505 l 1
 538 480 l 1
 471 443 l 2
 442 427 426 417 403 393 c 0
 378 366 372 348 356 315 c 2
 321 243 l 2
EndSplineSet
EndChar
StartChar: asciicircum
Encoding: 94 94
Width: 271
Flags: W
Fore
284 586 m 1
 284 587 147 471 147 471 c 1
 119 471 l 1
 263 624 l 1
 329 624 l 1
 330 624 l 1
 372 471 l 1
 344 471 l 1
 284 586 l 1
EndSplineSet
EndChar
StartChar: grave
Encoding: 96 96
Width: 1000
Flags: W
Fore
342 389 m 1
 198 453 l 2
 169 465 146 503 166 527 c 0
 186 551 226 538 245 513 c 2
 342 389 l 1
EndSplineSet
EndChar
StartChar: a
Encoding: 97 97
Width: 328
Flags: MW
HStem: 0 57 317 20
Fore
256 336 m 0
 302 327 306 283 293 249 c 1
 228 93 l 2
 221 76 209 49 216 47 c 0
 222 44 228 51 234 57 c 2
 257 79 l 1
 263 73 l 1
 214 25 l 2
 195 6 171 -6 164 -2 c 0
 157 3 145 17 159 50 c 2
 178 94 l 1
 178 95 113 30 113 30 c 2
 96 13 76 0 58 0 c 0
 28 0 16 34 13 63 c 0
 5 128 63 207 133 267 c 0
 175 302 226 341 256 336 c 0
69 107 m 2
 69 108 l 2
 69 82 83 55 112 57 c 0
 123 57 130 63 138 71 c 2
 190 122 l 1
 235 228 l 2
 245 252 258 291 213 291 c 0
 206 291 178 292 153 270 c 0
 97 221 69 164 69 107 c 2
EndSplineSet
EndChar
StartChar: b
Encoding: 98 98
Width: 342
Flags: MW
HStem: 279 55 597 70
Fore
149 230 m 1
 99 113 l 2
 90 91 75 55 120 55 c 0
 135 55 158 54 182 79 c 0
 227 125 258 174 253 227 c 0
 250 252 241 277 217 279 c 0
 207 280 174 265 149 230 c 1
196 76 m 2
 165 46 l 2
 151 32 104 1 76 5 c 0
 30 12 27 58 41 92 c 1
 207 482 l 2
 218 507 229 522 243 542 c 0
 261 568 276 577 301 595 c 2
 351 630 l 2
 374 646 404 666 421 667 c 0
 448 668 458 638 486 640 c 0
 498 641 506 642 516 648 c 2
 543 666 l 1
 549 660 l 1
 486 622 l 2
 463 608 453 597 423 597 c 0
 389 597 376 627 329 603 c 0
 305 591 295 573 284 548 c 2
 284 548 161 258 161 257 c 0
 193 307 247 334 264 334 c 0
 294 334 306 303 310 273 c 0
 318 211 260 138 196 76 c 2
EndSplineSet
EndChar
StartChar: c
Encoding: 99 99
Width: 283
Flags: MW
HStem: -12 20 297 48
Fore
225 277 m 0
 201 279 187 298 172 297 c 0
 147 295 136 267 117 237 c 0
 65 154 68 -6 162 47 c 2
 233 87 l 1
 233 78 l 1
 125 17 l 2
 102 3 88 -11 62 -12 c 0
 28 -13 12 27 10 63 c 0
 7 137 58 255 155 310 c 2
 193 332 l 2
 208 340 215 345 237 345 c 0
 261 345 262 319 304 332 c 2
 322 338 l 1
 326 326 l 1
 281 299 l 2
 261 287 252 274 225 277 c 0
EndSplineSet
EndChar
StartChar: d
Encoding: 100 100
Width: 342
Flags: HMW
HStem: -3 20 647 20
Fore
213 291 m 2
 206 291 172 285 140 257 c 0
 92 214 59 162 69 107 c 0
 74 82 83 55 112 57 c 0
 123 57 130 63 138 71 c 2
 205 138 l 1
 205 138 250 242 249 242 c 1
 255 265 250 291 212 291 c 2
 213 291 l 2
12 63 m 0
 4 136 75 223 153 286 c 0
 187 313 227 340 256 336 c 0
 267 334 278 329 285 323 c 1
 353 482 l 1
 363 507 374 522 388 543 c 0
 406 568 421 578 446 595 c 2
 496 630 l 2
 519 646 549 666 566 667 c 0
 593 668 603 638 631 640 c 0
 643 641 651 642 661 648 c 2
 688 666 l 1
 694 660 l 1
 631 622 l 2
 608 608 598 597 567 597 c 0
 534 597 521 627 474 603 c 0
 450 591 440 573 429 548 c 2
 288 222 l 1
 288 220 l 1
 232 92 l 1
 226 77 215 52 224 47 c 0
 229 43 237 51 243 57 c 2
 265 79 l 1
 271 73 l 1
 222 25 l 2
 203 6 179 -6 172 -2 c 0
 165 3 153 17 168 50 c 1
 193 110 l 1
 113 30 l 2
 96 12 76 0 58 0 c 0
 28 0 16 34 12 63 c 0
EndSplineSet
EndChar
StartChar: e
Encoding: 101 101
Width: 320
Flags: MW
HStem: -12 20 305 45
Fore
133 222 m 1
 160 213 178 210 207 217 c 0
 242 224 259 247 255 273 c 0
 252 295 226 306 210 305 c 0
 186 303 164 265 142 235 c 0
 139 231 136 226 133 222 c 1
112 165 m 1
 93 89 114 7 185 47 c 2
 257 87 l 1
 257 78 l 1
 148 17 l 2
 125 3 112 -11 85 -12 c 0
 52 -13 35 27 33 63 c 0
 30 137 84 252 180 308 c 2
 217 330 l 2
 238 342 255 350 277 350 c 0
 299 350 317 325 317 300 c 0
 317 227 160 173 160 173 c 1
 142 168 129 166 112 165 c 1
EndSplineSet
AlternateSubs: 0 'swsh' e.swash
Substitution: 0 'MSWF' e.swash
EndChar
StartChar: f
Encoding: 102 102
Width: 226
Flags: HMW
HStem: 647 20
Fore
154 333 m 2
 155 333 218 482 218 482 c 1
 228 507 239 522 253 543 c 0
 271 568 286 578 311 595 c 2
 361 630 l 2
 384 646 414 666 431 667 c 0
 458 668 468 638 496 640 c 0
 508 641 516 642 526 648 c 2
 553 666 l 1
 559 660 l 1
 496 622 l 2
 473 608 463 597 432 597 c 0
 399 597 386 627 339 603 c 0
 315 591 305 573 294 548 c 2
 202 333 l 1
 267 333 l 1
 247 293 l 1
 186 293 l 1
 -2 -148 l 1
 -12 -173 -23 -188 -37 -209 c 0
 -54 -235 -69 -244 -94 -262 c 2
 -144 -297 l 2
 -168 -313 -198 -332 -214 -333 c 0
 -242 -335 -252 -305 -279 -307 c 0
 -291 -307 -299 -309 -309 -315 c 2
 -337 -333 l 1
 -343 -327 l 1
 -279 -288 l 2
 -257 -275 -247 -263 -216 -263 c 0
 -182 -263 -168 -297 -122 -270 c 0
 -104 -259 -88 -240 -77 -215 c 2
 138 293 l 1
 73 293 l 1
 97 333 l 1
 154 333 l 2
EndSplineSet
AlternateSubs: 0 'swsh' f.swash
Substitution: 0 'MSLI' f.swash
EndChar
StartChar: g
Encoding: 103 103
Width: 318
Flags: HMW
HStem: 317 20
Fore
213 291 m 2
 206 291 162 279 140 257 c 0
 94 211 59 162 69 107 c 0
 74 82 83 55 112 57 c 0
 123 57 130 62 138 71 c 2
 190 123 l 1
 235 228 l 2
 245 252 258 291 212 291 c 2
 213 291 l 2
12 63 m 0
 5 128 112 245 134 268 c 1
 153 286 l 1
 173 307 226 341 256 336 c 0
 302 327 307 282 292 249 c 1
 127 -138 l 2
 116 -163 105 -177 91 -198 c 0
 73 -224 58 -233 33 -251 c 2
 -17 -286 l 2
 -40 -302 -70 -322 -87 -322 c 0
 -114 -324 -124 -294 -152 -296 c 0
 -163 -297 -172 -298 -182 -304 c 2
 -209 -322 l 1
 -215 -316 l 1
 -152 -277 l 2
 -129 -264 -119 -252 -88 -252 c 0
 -55 -252 -42 -283 5 -259 c 0
 29 -247 39 -229 50 -204 c 2
 178 94 l 1
 113 30 l 1
 96 12 76 0 58 0 c 0
 28 0 16 34 12 63 c 0
EndSplineSet
EndChar
StartChar: h
Encoding: 104 104
Width: 371
Flags: HMW
HStem: -3 20 647 20
Fore
144 198 m 1
 76 37 l 1
 12 2 l 1
 218 482 l 1
 228 507 239 522 253 543 c 0
 271 568 286 578 311 595 c 2
 361 630 l 2
 384 646 414 666 431 667 c 0
 458 668 468 638 496 640 c 0
 508 641 516 642 526 648 c 2
 553 666 l 1
 559 660 l 1
 496 622 l 2
 473 608 463 597 432 597 c 0
 399 597 386 627 339 603 c 0
 315 591 305 573 294 548 c 2
 161 237 l 1
 218 292 l 2
 244 316 267 331 302 333 c 0
 328 335 343 289 327 248 c 0
 300 181 230 50 272 53 c 0
 282 54 288 57 297 63 c 2
 315 77 l 1
 317 65 l 1
 267 30 l 2
 245 15 219 -11 207 -2 c 0
 145 42 329 289 255 288 c 0
 236 288 224 279 210 265 c 2
 144 198 l 1
EndSplineSet
EndChar
StartChar: i
Encoding: 105 105
Width: 198
Flags: HMW
HStem: -3 20
Fore
75 360 m 1
 70 367 l 1
 165 440 l 2
 186 456 223 472 230 457 c 0
 237 442 204 425 182 413 c 2
 75 360 l 1
162 253 m 1
 94 92 l 2
 87 76 77 49 83 47 c 0
 89 44 96 51 102 57 c 2
 124 79 l 1
 130 73 l 1
 82 25 l 2
 63 6 38 -6 32 -2 c 0
 24 3 12 17 26 50 c 2
 103 233 l 1
 111 254 131 294 93 294 c 0
 82 294 76 293 67 287 c 2
 48 273 l 1
 45 282 l 1
 88 313 l 2
 109 328 120 341 147 340 c 0
 190 338 175 285 162 253 c 1
EndSplineSet
EndChar
StartChar: j
Encoding: 106 106
Width: 233
Flags: W
DStem: -127 -202 -107 -203 -162 -233 -155 -242 107 295 93 273 57 265 62 257 107 237 177 285 8 15 57 8
Fore
110 360 m 1
 105 367 l 1
 200 440 l 2
 221 456 258 472 265 457 c 0
 272 442 239 425 217 413 c 2
 110 360 l 1
57 265 m 1
 107 295 l 2
 132 310 161 332 177 323 c 0
 195 313 183 299 177 285 c 2
 57 8 l 2
 34 -44 16 -73 -18 -120 c 0
 -47 -158 -69 -173 -107 -203 c 2
 -155 -242 l 1
 -162 -233 l 1
 -127 -202 l 2
 -95 -173 -83 -152 -62 -115 c 0
 -33 -66 -15 -38 8 15 c 1
 107 237 l 2
 114 252 129 282 112 282 c 0
 104 282 100 277 93 273 c 2
 62 257 l 1
 57 265 l 1
EndSplineSet
MinimumDistance: x7,-1 
EndChar
StartChar: k
Encoding: 107 107
Width: 392
Flags: MW
HStem: 597 70
VStem: 285 70
Fore
261 195 m 1
 274 204 284 215 284 233 c 0
 284 262 264 281 237 287 c 0
 203 295 178 272 163 242 c 2
 162 240 l 1
 162 240 162 240 162 238 c 1
 76 38 l 1
 12 2 l 1
 217 482 l 2
 228 507 239 522 253 542 c 0
 271 568 286 577 311 595 c 2
 361 630 l 2
 384 646 414 666 431 667 c 0
 458 668 468 638 496 640 c 0
 508 641 516 642 526 648 c 2
 553 666 l 1
 559 660 l 1
 496 622 l 2
 473 608 463 597 433 597 c 0
 399 597 386 627 339 603 c 0
 315 591 305 573 294 548 c 2
 182 287 l 1
 190 292 l 2
 229 318 264 339 302 335 c 0
 334 332 355 302 354 269 c 0
 353 228 312 206 268 185 c 1
 279 171 282 160 288 143 c 0
 302 108 294 51 312 51 c 0
 318 51 323 51 327 53 c 2
 344 63 l 1
 347 54 l 1
 272 17 l 2
 262 12 254 4 244 7 c 0
 221 15 233 62 221 93 c 0
 213 115 210 128 197 148 c 2
 186 165 l 1
 256 202 l 1
 261 195 l 1
EndSplineSet
EndChar
StartChar: l
Encoding: 108 108
Width: 198
Flags: HMW
HStem: -3 20 647 20
Fore
292 548 m 1
 95 92 l 1
 88 77 77 52 87 47 c 1
 92 43 99 51 105 57 c 2
 128 79 l 1
 133 73 l 1
 85 25 l 2
 66 6 42 -6 35 -2 c 0
 27 3 16 17 30 50 c 2
 215 482 l 2
 226 507 237 522 251 543 c 0
 268 568 283 578 308 595 c 2
 358 630 l 2
 382 646 412 666 428 667 c 0
 456 668 466 638 493 640 c 0
 505 641 513 642 523 648 c 2
 551 666 l 1
 557 660 l 1
 493 622 l 2
 471 608 461 597 430 597 c 0
 397 597 383 627 337 603 c 0
 313 591 302 573 292 548 c 1
EndSplineSet
EndChar
StartChar: m
Encoding: 109 109
Width: 503
Flags: MW
HStem: -3 20 292 48
Fore
305 239 m 1
 280 178 266 138 238 75 c 2
 220 33 l 1
 152 0 l 1
 233 197 l 1
 246 227 284 288 238 288 c 0
 225 288 212 279 200 268 c 1
 167 234 l 1
 85 37 l 1
 23 2 l 1
 115 233 l 2
 124 255 143 292 105 292 c 0
 95 292 88 293 80 287 c 2
 62 273 l 1
 58 282 l 1
 102 313 l 2
 122 328 133 341 160 340 c 0
 196 339 192 303 182 272 c 1
 208 298 l 2
 232 322 251 332 285 333 c 0
 319 335 324 304 316 270 c 1
 338 292 l 2
 364 316 387 331 422 333 c 0
 448 335 463 289 447 248 c 0
 420 181 350 50 392 53 c 0
 402 54 408 57 417 63 c 2
 435 77 l 1
 437 65 l 1
 387 30 l 2
 365 15 339 -11 327 -2 c 0
 265 42 449 289 375 288 c 0
 356 288 344 279 330 265 c 2
 305 239 l 1
EndSplineSet
AlternateSubs: 0 'swsh' m.swash m.alt
Substitution: 0 'MSLF' m.swash
EndChar
StartChar: n
Encoding: 110 110
Width: 376
Flags: MW
HStem: -3 20 292 48
Fore
156 208 m 1
 85 37 l 1
 23 2 l 1
 115 233 l 2
 124 255 143 292 105 292 c 0
 95 292 88 293 80 287 c 2
 62 273 l 1
 58 282 l 1
 102 313 l 2
 122 328 133 341 160 340 c 0
 203 338 189 285 175 253 c 2
 172 246 l 1
 220 292 l 2
 246 316 269 331 303 333 c 0
 330 335 345 289 328 248 c 0
 301 181 232 50 273 53 c 0
 283 54 290 57 298 63 c 2
 317 77 l 1
 318 65 l 1
 268 30 l 2
 247 15 221 -11 208 -2 c 0
 147 42 331 289 257 288 c 0
 238 288 226 279 212 265 c 2
 212 265 157 208 156 208 c 1
EndSplineSet
AlternateSubs: 0 'swsh' n.swash
Substitution: 0 'MSLF' n.swash
EndChar
StartChar: o
Encoding: 111 111
Width: 328
Flags: MW
HStem: -1 55 281 55
Fore
168 81 m 1
 167 81 l 1
 211 127 248 175 238 229 c 0
 233 255 222 283 196 281 c 0
 186 280 180 279 173 271 c 2
 157 254 l 2
 113 208 77 160 87 106 c 0
 92 80 103 52 128 54 c 0
 138 55 144 56 152 64 c 2
 168 81 l 1
157 54 m 2
 129 28 108 1 75 -1 c 0
 46 -2 36 32 32 61 c 0
 22 125 83 201 150 264 c 2
 165 278 l 2
 194 306 216 336 249 336 c 0
 278 336 288 303 292 274 c 0
 302 210 241 134 174 71 c 2
 157 54 l 2
EndSplineSet
EndChar
StartChar: p
Encoding: 112 112
Width: 363
Flags: HMW
HStem: 316 20
VStem: 154 59
Fore
121 128 m 2
 104 89 111 46 142 46 c 0
 151 46 182 52 201 67 c 0
 257 110 288 174 283 228 c 0
 281 252 272 277 247 279 c 0
 237 280 223 273 212 262 c 2
 153 203 l 1
 121 128 l 2
72 12 m 1
 2 -148 l 1
 -8 -173 -19 -188 -33 -209 c 0
 -51 -235 -66 -244 -91 -262 c 2
 -141 -297 l 2
 -164 -313 -194 -332 -211 -333 c 0
 -238 -335 -248 -305 -276 -307 c 0
 -288 -307 -296 -309 -306 -315 c 2
 -333 -333 l 1
 -339 -327 l 1
 -276 -288 l 2
 -253 -275 -243 -263 -212 -263 c 0
 -179 -263 -166 -294 -119 -270 c 0
 -95 -257 -85 -240 -74 -215 c 2
 68 117 l 1
 121 241 l 2
 128 258 141 282 131 287 c 0
 126 289 118 282 112 277 c 1
 90 254 l 1
 84 260 l 1
 133 308 l 2
 152 327 176 339 183 335 c 0
 190 330 202 317 187 283 c 2
 165 231 l 1
 240 306 l 2
 258 323 278 334 295 334 c 0
 325 334 337 303 341 272 c 0
 349 208 296 126 222 67 c 2
 202 51 l 1
 187 36 127 -4 98 1 c 0
 89 2 79 8 72 13 c 2
 72 12 l 1
EndSplineSet
EndChar
StartChar: q
Encoding: 113 113
Width: 342
Flags: HMW
HStem: 317 20
Fore
141 258 m 1
 93 215 59 162 69 107 c 0
 74 82 83 55 112 57 c 0
 123 57 130 62 138 71 c 2
 190 123 l 1
 235 228 l 2
 245 252 258 291 212 291 c 0
 194 291 180 293 141 257 c 2
 141 258 l 1
28 -263 m 1
 32 -263 35 -262 39 -262 c 0
 93 -257 113 -290 153 -288 c 0
 188 -287 205 -295 243 -265 c 2
 259 -252 l 1
 269 -260 l 1
 212 -302 l 2
 185 -322 165 -328 131 -332 c 0
 95 -335 75 -315 39 -315 c 0
 4 -315 -14 -327 -49 -328 c 2
 -83 -330 l 1
 -30 -277 l 1
 -16 -272 -41 -284 5 -259 c 0
 21 -251 41 -225 50 -204 c 2
 178 94 l 1
 113 30 l 1
 96 12 76 0 58 0 c 0
 28 0 16 34 12 63 c 0
 5 128 69 227 153 286 c 0
 188 311 226 341 256 336 c 0
 302 327 307 282 292 249 c 1
 127 -138 l 2
 116 -163 105 -178 91 -198 c 0
 74 -223 57 -244 28 -263 c 1
EndSplineSet
EndChar
StartChar: r
Encoding: 114 114
Width: 305
Flags: MW
HStem: 292 48
Fore
185 282 m 1
 262 332 l 2
 277 342 283 345 305 345 c 0
 324 345 342 322 367 330 c 2
 384 336 l 1
 388 322 l 1
 349 299 l 2
 329 288 320 274 293 277 c 0
 269 279 260 297 244 296 c 0
 228 294 205 276 182 262 c 2
 177 259 l 1
 177 257 176 255 175 253 c 2
 85 37 l 1
 23 2 l 1
 115 233 l 2
 124 255 143 292 105 292 c 0
 95 292 88 293 80 287 c 2
 62 273 l 1
 58 282 l 1
 102 313 l 2
 122 328 133 341 160 340 c 0
 192 339 193 309 185 282 c 1
EndSplineSet
EndChar
StartChar: s
Encoding: 115 115
Width: 313
Flags: HMW
HStem: -13 20 328 20
Fore
127 20 m 0
 178 17 211 73 210 125 c 0
 209 192 67 143 68 220 c 0
 69 257 180 339 235 348 c 0
 256 352 266 328 288 328 c 0
 300 328 309 327 318 333 c 2
 330 342 l 1
 338 338 l 1
 307 315 l 2
 283 298 266 286 237 285 c 0
 212 284 200 305 177 300 c 0
 154 295 130 274 130 262 c 0
 131 202 282 235 280 160 c 0
 278 100 216 36 140 5 c 0
 112 -7 92 -13 62 -13 c 0
 27 -13 -6 4 -10 38 c 0
 -14 73 17 91 48 107 c 2
 95 130 l 1
 97 120 l 1
 77 112 l 2
 63 106 57 94 53 80 c 0
 44 44 90 22 127 20 c 0
EndSplineSet
Substitution: 0 'medi' longs
Substitution: 0 'init' longs
EndChar
StartChar: t
Encoding: 116 116
Width: 241
Flags: HMW
HStem: -3 20
Fore
143 293 m 1
 73 293 l 1
 242 418 l 1
 242 418 207 333 206 333 c 2
 267 333 l 1
 247 293 l 1
 190 293 l 1
 106 92 l 2
 99 76 88 49 94 47 c 0
 100 44 107 51 113 57 c 2
 138 83 l 1
 144 77 l 1
 92 25 l 2
 73 6 49 -6 42 -2 c 0
 35 3 23 17 38 50 c 1
 143 293 l 1
EndSplineSet
EndChar
StartChar: u
Encoding: 117 117
Width: 333
Flags: HMW
HStem: -3 20 317 20
Fore
194 121 m 1
 268 300 l 1
 330 335 l 1
 238 103 l 2
 230 82 211 45 248 45 c 0
 258 45 265 44 273 50 c 2
 292 63 l 1
 295 55 l 1
 252 23 l 1
 231 9 220 -4 193 -3 c 0
 150 -2 165 52 178 83 c 1
 133 42 l 2
 107 18 84 2 50 0 c 0
 23 -2 9 44 25 85 c 0
 52 152 122 283 80 280 c 0
 70 279 63 276 55 270 c 2
 37 257 l 1
 35 268 l 1
 85 303 l 2
 107 318 132 344 145 335 c 0
 207 291 22 44 97 45 c 0
 116 45 128 54 142 68 c 2
 194 121 l 1
EndSplineSet
EndChar
StartChar: v
Encoding: 118 118
Width: 348
Flags: HMW
HStem: -3 20 315 20<110.5 150 360 360>
VStem: 184 108
Fore
5 2 m 1
 48 47 l 2
 95 95 114 147 115 205 c 0
 116 243 106 294 73 293 c 0
 63 293 56 292 47 285 c 2
 28 272 l 1
 23 278 l 1
 52 300 l 2
 78 320 94 335 127 335 c 0
 173 335 185 288 183 248 c 0
 181 186 170 148 130 102 c 2
 82 45 l 1
 155 83 l 2
 206 110 234 135 262 187 c 0
 279 220 289 241 292 278 c 1
 293 305 l 1
 360 335 l 1
 360 307 l 2
 360 265 346 243 325 207 c 0
 283 132 232 104 155 67 c 2
 8 -3 l 1
 5 2 l 1
EndSplineSet
EndChar
StartChar: w
Encoding: 119 119
Width: 501
Flags: HMW
HStem: -8 20 317 20
Fore
23 0 m 1
 48 40 l 2
 81 91 99 129 97 188 c 0
 95 223 97 296 52 295 c 0
 43 295 37 294 30 290 c 2
 2 273 l 1
 -2 282 l 1
 37 307 l 2
 61 322 79 336 107 337 c 0
 149 338 173 279 173 233 c 0
 173 175 163 139 132 88 c 2
 113 58 l 1
 145 78 l 2
 182 102 198 123 223 160 c 0
 249 197 262 221 273 263 c 1
 282 293 l 1
 357 330 l 1
 360 300 l 1
 365 253 368 226 360 180 c 0
 353 135 346 107 322 68 c 2
 307 45 l 1
 340 68 l 2
 383 98 397 126 422 172 c 0
 442 209 453 233 458 275 c 1
 462 302 l 1
 538 332 l 1
 527 285 l 1
 510 217 487 179 440 127 c 0
 402 84 377 59 325 37 c 2
 222 -8 l 1
 213 -3 l 1
 228 12 l 2
 250 33 258 51 268 80 c 0
 279 109 287 128 283 158 c 1
 282 173 l 1
 270 157 l 2
 252 131 235 122 210 102 c 0
 174 73 151 61 110 38 c 2
 35 -3 l 1
 23 0 l 1
EndSplineSet
AlternateSubs: 0 'swsh' w.alt
EndChar
StartChar: x
Encoding: 120 120
Width: 531
Flags: MW
HStem: -131 50 308 20
Fore
234 103 m 1
 141 1 l 2
 94 -51 -57 -128 -112 -131 c 0
 -155 -133 -179 -117 -216 -96 c 2
 -236 -84 l 1
 -176 -37 l 1
 -144 -54 l 2
 -107 -74 -82 -83 -39 -81 c 0
 35 -78 73 -36 122 19 c 2
 219 127 l 1
 148 240 l 2
 133 263 118 287 91 282 c 0
 82 280 77 277 69 272 c 2
 34 247 l 1
 27 255 l 1
 89 298 l 2
 110 313 123 330 149 328 c 0
 175 327 191 313 204 292 c 2
 272 185 l 1
 317 237 l 1
 346 268 411 314 482 313 c 0
 497 313 507 311 521 303 c 2
 536 295 l 1
 508 257 l 1
 493 268 l 2
 480 278 472 281 456 285 c 0
 406 296 375 259 341 222 c 2
 287 162 l 1
 336 83 l 2
 351 60 365 37 392 42 c 0
 402 43 407 46 414 52 c 2
 449 77 l 1
 456 68 l 1
 394 25 l 2
 373 10 360 -7 334 -5 c 0
 308 -3 293 10 279 32 c 2
 234 103 l 1
EndSplineSet
EndChar
StartChar: y
Encoding: 121 121
Width: 333
Flags: HMW
HStem: 317 20
Fore
192 120 m 1
 266 298 l 1
 330 335 l 1
 117 -177 l 1
 107 -203 92 -215 78 -236 c 0
 72 -245 64 -254 56 -263 c 1
 103 -262 124 -292 162 -290 c 0
 198 -288 214 -297 252 -267 c 2
 268 -253 l 1
 278 -262 l 1
 222 -303 l 2
 194 -323 174 -330 140 -333 c 0
 104 -337 84 -317 48 -317 c 0
 22 -317 5 -323 -16 -327 c 1
 -24 -333 l 1
 -62 -333 l 1
 -25 -275 l 1
 -22 -275 l 1
 2 -272 l 2
 8 -271 13 -270 17 -269 c 1
 18 -267 20 -266 23 -263 c 0
 42 -244 46 -229 56 -205 c 2
 176 82 l 1
 133 42 l 1
 108 17 84 2 50 0 c 0
 23 -2 9 44 25 85 c 0
 52 152 122 283 80 280 c 0
 70 279 63 276 55 270 c 2
 37 257 l 1
 35 268 l 1
 85 303 l 2
 107 318 132 344 145 335 c 0
 207 291 22 44 97 45 c 0
 116 45 128 54 142 68 c 2
 192 120 l 1
EndSplineSet
AlternateSubs: 0 'swsh' y.alt
EndChar
StartChar: z
Encoding: 122 122
Width: 321
Flags: MW
HStem: -3 20 317 20<330 330>
Fore
191 161 m 2
 183 139 177 127 162 109 c 0
 152 98 146 92 134 84 c 2
 106 65 l 1
 122 68 l 2
 129 68 133 67 140 67 c 0
 171 64 186 41 217 47 c 0
 227 48 233 49 242 55 c 2
 260 68 l 1
 268 62 l 1
 232 35 l 2
 207 17 189 5 158 2 c 0
 124 -2 106 26 72 22 c 0
 54 19 44 15 28 8 c 2
 0 -3 l 1
 0 13 l 1
 45 38 l 2
 64 49 75 56 90 72 c 0
 107 89 114 102 122 123 c 1
 139 172 l 2
 147 194 153 207 168 224 c 0
 178 235 184 241 196 249 c 2
 224 268 l 1
 208 266 l 2
 201 265 197 266 190 267 c 0
 159 269 144 292 113 287 c 0
 103 285 97 284 88 278 c 2
 70 265 l 1
 62 272 l 1
 98 298 l 2
 123 317 141 328 172 332 c 0
 206 336 224 307 258 312 c 0
 276 314 286 318 302 325 c 2
 330 337 l 1
 330 320 l 1
 285 295 l 2
 266 284 255 277 240 262 c 0
 223 244 216 232 208 210 c 2
 191 161 l 2
EndSplineSet
EndChar
StartChar: asciitilde
Encoding: 126 126
Width: 436
Flags: MW
HStem: 97 33 226 37
Fore
413 153 m 1
 355 113 l 2
 341 104 331 98 313 97 c 0
 284 95 265 105 242 123 c 2
 128 212 l 2
 117 221 107 226 92 227 c 0
 72 228 60 220 44 208 c 2
 -8 168 l 1
 15 202 l 1
 73 247 l 2
 87 258 97 263 115 263 c 0
 142 264 154 248 175 232 c 2
 290 143 l 2
 304 132 316 131 333 130 c 0
 355 129 370 133 387 147 c 2
 428 180 l 1
 413 153 l 1
EndSplineSet
EndChar
StartChar: exclamdown
Encoding: 161 161
Width: 334
Flags: W
DStem: 200 435 245 390 40 40 85 0 265 580 310 535 225 490 270 450
Fore
200 435 m 1
 245 390 l 1
 85 0 l 1
 40 40 l 1
 200 435 l 1
265 580 m 1
 310 535 l 1
 270 450 l 1
 225 490 l 1
 265 580 l 1
EndSplineSet
MinimumDistance: x5,-1 
EndChar
StartChar: dieresis
Encoding: 168 168
Width: 307
Flags: W
Fore
165 603 m 1
 225 663 l 1
 282 603 l 1
 225 543 l 1
 165 603 l 1
363 600 m 1
 423 660 l 1
 480 600 l 1
 423 540 l 1
 363 600 l 1
EndSplineSet
EndChar
StartChar: degree
Encoding: 176 176
Width: 1000
HStem: 456 31.2<176.308 189> 580.8 31.2<176.308 189>
VStem: 108 31.2<524.308 537> 232.8 31.2<524.308 537>
Fore
186 580.8 m 4
 160.166 580.8 139.2 559.834 139.2 534 c 4
 139.2 508.166 160.166 487.2 186 487.2 c 4
 211.834 487.2 232.8 508.166 232.8 534 c 4
 232.8 559.834 211.834 580.8 186 580.8 c 4
186 612 m 0
 229.056 612 264 577.056 264 534 c 0
 264 490.944 229.056 456 186 456 c 0
 142.944 456 108 490.944 108 534 c 0
 108 577.056 142.944 612 186 612 c 0
EndSplineSet
MinimumDistance: x5,-1 
EndChar
StartChar: acute
Encoding: 180 180
Width: 212
Flags: W
Fore
115 389 m 5
 212 513 l 6
 231 538 271 551 291 527 c 4
 311 503 287 465 258 453 c 6
 115 389 l 5
EndSplineSet
EndChar
StartChar: cedilla
Encoding: 184 184
Width: 283
Flags: W
VStem: 45 32<-162.28 -155 -154.969 -150>
DStem: 65 -12 92.0029 -3 -22 -115 17 -90
Fore
92.0029 -3 m 29
 17 -90 l 1
 43 -98 l 2
 67 -106 77 -130 77 -155 c 0
 77 -197 26 -205 -15 -212 c 2
 -35 -215 l 1
 -27 -197 l 1
 -5 -193 l 2
 20 -189 46 -178 45 -153 c 0
 45 -141 33 -134 22 -130 c 2
 -22 -115 l 1
 65 -12 l 1
 64 -12 92.0029 -3 92.0029 -3 c 29
EndSplineSet
MinimumDistance: x0,-1 
EndChar
StartChar: questiondown
Encoding: 191 191
Width: 334
Flags: W
DStem: 250.209 37.5117 250.209 37.5117 237.209 23.5117 256.209 34.5117 250.209 37.5117 256.209 34.5117 237.209 23.5117 244.209 18.5117 282.209 567.512 318.209 531.512 236.209 521.512 272.209 485.512
Fore
250.209 37.5117 m 1
 256.209 34.5117 l 1
 244.209 18.5117 l 2
 203.209 -33.4883 160.209 -65.4883 94.209 -60.4883 c 0
 35.209 -55.4883 -18.791 -7.48828 -14.791 53.5117 c 0
 -8.79102 124.512 35.209 157.512 82.209 210.512 c 0
 125.209 258.512 187.209 310.512 190.209 341.512 c 0
 191.209 359.512 178.209 376.512 161.209 377.512 c 0
 146.209 378.512 137.209 373.512 124.209 365.512 c 2
 114.209 359.512 l 1
 110.209 366.512 l 1
 120.209 374.512 l 2
 152.209 403.512 188.209 428.512 215.209 426.512 c 0
 235.209 424.512 256.209 404.512 255.209 382.512 c 0
 250.209 322.512 158.209 277.512 96.209 205.512 c 1
 66.209 172.512 49.209 149.512 46.209 104.512 c 0
 41.209 49.5117 80.209 -2.48828 136.209 -7.48828 c 0
 175.209 -11.4883 215.209 -0.488281 237.209 23.5117 c 2
 250.209 37.5117 l 1
272.209 485.512 m 1
 236.209 521.512 l 1
 282.209 567.512 l 1
 318.209 531.512 l 1
 272.209 485.512 l 1
EndSplineSet
MinimumDistance: x21,-1 
EndChar
StartChar: AE
Encoding: 198 198
Width: 573
Flags: HMW
HStem: -11 20 40 162 250 191
Fore
294 213 m 1
 257 215 l 2
 182 220 91 184 97 110 c 0
 99 83 111 66 135 53 c 0
 158 42 188 85 213 115 c 2
 294 213 l 1
475 391 m 1
 366 262 l 1
 423 258 l 1
 475 391 l 1
296 -4 m 1
 284 -8 276 -11 266 -5 c 2
 255 2 l 1
 290 41 l 1
 309 44 l 2
 328 47 338 50 348 74 c 0
 362 106 369 127 383 161 c 2
 402 206 l 1
 322 211 l 1
 257 135 l 2
 242 117 226 97 203 75 c 0
 165 38 122 -5 93 -5 c 0
 62 -5 36 29 37 58 c 0
 38 95 63 119 90 152 c 0
 151 226 205 275 307 267 c 2
 337 264 l 1
 509 476 l 1
 518 498 l 1
 528 498 l 1
 528 498 l 1
 528 498 l 1
 709 498 l 2
 714 498 718 494 720 490 c 0
 723 485 721 479 717 474 c 2
 658 411 l 1
 637 411 l 1
 667 441 l 1
 538 441 l 1
 466 254 l 1
 466 255 528 250 528 250 c 2
 554 248 570 248 595 253 c 0
 618 258 632 263 652 275 c 2
 692 300 l 1
 692 288 l 1
 653 260 l 2
 619 235 598 219 558 207 c 0
 523 196 499 200 462 202 c 2
 446 202 l 1
 425 150 l 2
 419 135 416 127 407 113 c 0
 395 93 384 81 367 62 c 2
 347 40 l 1
 425 40 l 2
 465 40 493 35 528 55 c 0
 549 68 567 73 564 108 c 2
 563 119 l 1
 596 156 l 1
 607 147 l 2
 617 138 608 109 598 99 c 0
 546 42 518 8 436 -6 c 0
 388 -14 360 -11 312 -6 c 2
 296 -4 l 1
EndSplineSet
EndChar
StartChar: Ccedilla
Encoding: 199 199
Width: 283
Flags: W
VStem: 93 32<-150.28 -143 -142.969 -138>
DStem: 108.001 -5.8418 128.168 -4.86621 26 -103 65 -78 257 100 257 100 227 70 260 92 257 100 260 92 227 70 199 31 411 471 411 471 404 467 416 464
Fore
128.168 -4.86621 m 5
 65 -78 l 1
 91 -86 l 2
 115 -94 125 -118 125 -143 c 0
 125 -185 74 -193 33 -200 c 2
 13 -203 l 1
 21 -185 l 1
 43 -181 l 2
 68 -177 94 -166 93 -141 c 0
 93 -129 81 -122 70 -118 c 2
 26 -103 l 1
 108.001 -5.8418 l 1
 59.0078 -1.76347 38.0443 64.8177 39 104 c 0
 41 209 125 361 230 440 c 0
 266 466 295 479 337 482 c 0
 356 483 365 470 384 468 c 0
 392 468 398 464 404 467 c 2
 411 471 l 1
 416 464 l 1
 400 453 l 2
 380 438 366 428 341 425 c 0
 317 422 305 436 280 436 c 0
 265 436 258 441 241 428 c 0
 168 373 96 240 98 164 c 0
 99 112 113 50 165 47 c 0
 191 45 209 52 227 70 c 2
 257 100 l 1
 260 92 l 1
 199 31 l 2
 176.326 8.32617 156.694 -1.41905 128.168 -4.86621 c 5
EndSplineSet
EndChar
StartChar: Eacute
Encoding: 201 201
Width: 334
Flags: HMW
HStem: -11 20
Fore
248 441 m 1
 222 441 203 440 180 433 c 0
 152 425 129 411 117 394 c 0
 98 366 132 351 165 369 c 2
 186 381 l 1
 158 342 l 1
 143 319 120 303 94 313 c 0
 80 318 66 324 65 339 c 0
 64 359 79 376 97 393 c 2
 121 416 l 2
 152 446 178 466 210 483 c 0
 238 497 258 497 290 497 c 2
 428 497 l 2
 433 497 436 494 438 490 c 0
 441 485 439 479 435 474 c 2
 377 411 l 1
 356 411 l 1
 385 441 l 1
 289 441 l 1
 220 263 l 1
 221 263 242 277 242 277 c 2
 259 287 268 303 288 303 c 0
 308 303 317 281 337 283 c 0
 346 284 352 286 358 293 c 1
 368 302 l 1
 377 294 l 1
 352 269 l 2
 335 252 320 242 299 242 c 0
 280 242 272 262 252 262 c 0
 243 261 236 260 227 254 c 2
 212 243 l 1
 177 150 l 2
 171 135 167 127 159 113 c 0
 147 93 136 81 119 62 c 2
 99 40 l 1
 177 40 l 2
 217 40 245 35 279 55 c 0
 301 68 319 73 316 108 c 2
 315 119 l 1
 348 156 l 1
 358 147 l 2
 368 138 359 109 350 99 c 0
 298 42 270 8 187 -6 c 0
 140 -14 111 -12 63 -6 c 2
 7 2 l 1
 42 41 l 1
 61 44 l 2
 79 47 90 50 100 74 c 0
 113 106 121 127 135 161 c 2
 248 441 l 1
255 514 m 1
 352 638 l 2
 371 663 411 676 431 652 c 0
 451 628 427 590 398 578 c 2
 255 514 l 1
EndSplineSet
EndChar
StartChar: Eth
Encoding: 208 208
Width: 516
Flags: W
HStem: 441 57<252 273 322 376>
DStem: 175.258 219.137 234.052 235.222 157 170 210 172 225 353 280 356 195.113 272.569 254.434 288.798
Fore
234.052 235.222 m 1
 210 172 l 2
 193.747 129.151 165.98 67.8897 132 42 c 1
 147 44 162 44 181 44 c 0
 213 44 230 24 262 27 c 0
 321 33 372 96 398 160 c 0
 444 271 528 441 357 441 c 2
 323 441 l 1
 310.366 422.952 289.026 379.694 280 356 c 2
 254.434 288.798 l 1
 310 304 l 1
 310 256 l 1
 234.052 235.222 l 1
175.258 219.137 m 1
 98 198 l 1
 98 246 l 1
 195.113 272.569 l 1
 225 353 l 2
 238.536 390.225 250.404 416.145 273 441 c 1
 243 441 l 2
 215 441 195 441 170 433 c 0
 142 425 120 411 108 394 c 0
 88 366 121 351 155 369 c 2
 177 381 l 1
 148 342 l 2
 132 319 110 303 84 312 c 0
 70 318 56 324 55 339 c 0
 54 359 70 375 87 392 c 2
 111 416 l 2
 142 447 168 466 200 482 c 0
 228 497 248 498 280 498 c 2
 369 498 l 2
 579 498 508 307 467 188 c 0
 452 144 397 87 334 44 c 0
 283 10 249 -22 188 -18 c 0
 156 -17 141 6 109 4 c 0
 96 3 85 5 74 -2 c 2
 63 -9 l 1
 63 -8 l 1
 62 -9 l 1
 62 4 l 1
 78 17 l 2
 117.878 45.484 137.831 120.16 157 170 c 1
 175.258 219.137 l 1
EndSplineSet
MinimumDistance: x8,-1 
EndChar
StartChar: germandbls
Encoding: 223 223
Width: 515
Flags: HMW
HStem: 647 20
Fore
138 293 m 1
 73 293 l 1
 97 333 l 1
 155 333 l 1
 218 482 l 1
 228 507 239 522 253 543 c 0
 271 568 286 578 311 595 c 2
 361 630 l 2
 384 646 414 668 431 667 c 0
 578 652 568 628 575 560 c 0
 583 492 527 429 457 418 c 0
 426 414 405 441 377 429 c 0
 351 418 330 393 330 376 c 0
 331 292 482 338 480 233 c 0
 478 149 427 67 340 17 c 0
 312 2 292 -8 262 -8 c 0
 222 -8 194 24 190 64 c 0
 186 107 213 133 248 158 c 2
 295 192 l 1
 297 177 l 1
 277 166 l 2
 260 156 257 141 253 122 c 0
 246 79 283 42 327 38 c 0
 392 32 411 119 410 184 c 0
 409 260 267 209 268 318 c 0
 269 370 378 492 435 497 c 0
 605 511 563 587 442 602 c 0
 409 606 386 627 339 603 c 0
 315 591 305 573 294 548 c 2
 -1 -148 l 1
 -11 -173 -23 -188 -37 -209 c 0
 -54 -235 -69 -244 -94 -262 c 2
 -144 -297 l 2
 -168 -313 -198 -332 -214 -333 c 0
 -242 -335 -252 -305 -279 -307 c 0
 -291 -307 -299 -309 -309 -315 c 2
 -337 -333 l 1
 -343 -327 l 1
 -279 -288 l 2
 -257 -275 -247 -263 -216 -263 c 0
 -182 -263 -169 -294 -122 -270 c 0
 -98 -257 -88 -240 -77 -215 c 2
 138 293 l 1
EndSplineSet
LCarets: 0 '    ' 1 0 
Ligature: 8 'liga' longs s
EndChar
StartChar: ae
Encoding: 230 230
Width: 464
Flags: MW
HStem: 0 57 330 20
Fore
439 273 m 0
 436 295 410 306 394 305 c 0
 370 303 348 265 326 235 c 0
 323 231 320 226 317 222 c 1
 344 213 362 210 391 217 c 0
 426 224 443 247 439 273 c 0
152 286 m 2
 172 305 228 340 256 336 c 0
 278 333 292 320 300 305 c 1
 333 328 l 1
 307 266 l 1
 307 265 307 264 306 262 c 1
 323 280 343 296 364 308 c 2
 401 330 l 2
 422 342 439 350 461 350 c 0
 483 350 501 325 501 300 c 0
 501 227 344 173 344 173 c 1
 326 168 313 166 296 165 c 1
 277 89 298 7 369 47 c 2
 441 87 l 1
 441 78 l 1
 333 17 l 2
 309 3 296 -11 269 -12 c 0
 236 -13 219 27 217 63 c 0
 217 68 218 73 218 78 c 1
 193 107 l 1
 193 110 l 1
 113 30 l 2
 96 12 76 0 58 0 c 0
 28 0 16 34 13 63 c 0
 5 128 68 202 133 267 c 2
 152 286 l 2
69 107 m 2
 69 108 l 2
 69 82 83 55 112 57 c 0
 123 57 130 62 138 71 c 1
 205 137 l 1
 250 245 l 1
 254 267 248 291 213 291 c 0
 206 291 169 287 153 270 c 0
 84 197 69 165 69 107 c 2
EndSplineSet
EndChar
StartChar: ccedilla
Encoding: 231 231
Width: 283
Flags: MW
HStem: 297 48
VStem: 45 32<-153 -147>
Fore
65 -12 m 5
 64 -12 62 -12 62 -12 c 6
 28 -12 12 27 10 63 c 4
 7 137 58 255 155 310 c 6
 193 332 l 6
 208 340 215 345 237 345 c 4
 261 345 262 319 304 332 c 6
 322 338 l 5
 326 326 l 5
 281 299 l 6
 261 287 252 274 225 277 c 4
 201 279 187 298 172 297 c 4
 147 295 136 267 117 237 c 4
 65 154 68 -6 162 47 c 6
 233 87 l 5
 233 78 l 5
 125 17 l 6
 112 9 103 2 92 -3 c 5
 17 -90 l 5
 43 -98 l 6
 67 -106 77 -130 77 -155 c 4
 77 -197 26 -205 -15 -212 c 6
 -35 -215 l 5
 -27 -197 l 5
 -5 -193 l 6
 20 -189 46 -178 45 -153 c 4
 45 -141 33 -134 22 -130 c 6
 -22 -115 l 5
 65 -12 l 5
EndSplineSet
EndChar
StartChar: dotlessi
Encoding: 260 305
Width: 198
Flags: W
DStem: 88 313 67 287 45 282 48 273 103 233 162 253 26 50 94 92 124 79 124 79 102 57 130 73 124 79 130 73 102 57 82 25
Fore
162 253 m 1
 94 92 l 2
 87 76 77 49 83 47 c 0
 89 44 96 51 102 57 c 2
 124 79 l 1
 130 73 l 1
 82 25 l 2
 63 6 38 -6 32 -2 c 0
 24 3 12 17 26 50 c 2
 103 233 l 1
 111 254 131 294 93 294 c 0
 82 294 76 293 67 287 c 2
 48 273 l 1
 45 282 l 1
 88 313 l 2
 109 328 120 341 147 340 c 0
 190 338 175 285 162 253 c 1
EndSplineSet
MinimumDistance: x0,-1 
EndChar
StartChar: Lslash
Encoding: 261 321
Width: 276
Flags: W
HStem: 597 70<450 452 453.031 462.588>
DStem: 160.137 300.641 216.06 315.941 77 107 135 125 238 482 315 549 183.487 355.03 239.115 370.248 542 -10 544 -22 477 -48 484 -60 574 667 574 667 547 649 580 661 574 667 580 661 547 649 517 623
Fore
216.06 315.941 m 1
 135 125 l 2
 123 97 108 68 95 53 c 1
 157 43 256 -67 369 -68 c 0
 412 -68 440 -69 477 -48 c 2
 542 -10 l 1
 544 -22 l 1
 484 -60 l 2
 437 -90 407 -108 352 -117 c 0
 221 -139 110 9 29 5 c 2
 29 5 10 8 -4 3 c 1
 -3 18 l 1
 15 27 l 2
 32 36 25 30 37 42 c 1
 46 49 63 73 77 107 c 1
 160.137 300.641 l 1
 92 282 l 1
 92 330 l 1
 183.487 355.03 l 1
 238 482 l 2
 249 508 260 522 274 543 c 0
 292 569 307 578 332 596 c 2
 382 631 l 2
 405 647 435 667 452 667 c 0
 479 669 489 639 517 641 c 0
 528 642 537 643 547 649 c 2
 574 667 l 1
 580 661 l 1
 517 623 l 2
 494 609 484 597 453 597 c 0
 420 597 407 628 360 604 c 0
 336 592 326 574 315 549 c 2
 239.115 370.248 l 1
 304 388 l 1
 304 340 l 1
 216.06 315.941 l 1
EndSplineSet
EndChar
StartChar: lslash
Encoding: 262 322
Width: 198
Flags: W
HStem: 597 70<428.031 430>
DStem: 128 79 128 79 105 57 133 73 128 79 133 73 105 57 85 25 136.963 299.773 191.168 314.603 30 50 95 92 215 482 292 548 160.246 354.143 214.685 369.036 551 666 551 666 523 648 557 660 551 666 557 660 523 648 493 622
Fore
136.963 299.773 m 1
 72 282 l 5
 72 330 l 5
 160.246 354.143 l 1
 215 482 l 2
 226 507 237 522 251 543 c 0
 268 568 283 578 308 595 c 2
 358 630 l 2
 382 646 412 666 428 667 c 0
 456 668 466 638 493 640 c 0
 505 641 513 642 523 648 c 2
 551 666 l 1
 557 660 l 1
 493 622 l 2
 471 608 461 597 430 597 c 0
 397 597 383 627 337 603 c 0
 313 591 302 573 292 548 c 1
 214.685 369.036 l 1
 284 388 l 5
 284 340 l 5
 191.168 314.603 l 1
 95 92 l 1
 88 77 77 52 87 47 c 1
 92 43 99 51 105 57 c 2
 128 79 l 1
 133 73 l 1
 85 25 l 2
 66 6 42 -6 35 -2 c 0
 27 3 16 17 30 50 c 2
 136.963 299.773 l 1
EndSplineSet
EndChar
StartChar: OE
Encoding: 263 338
Width: 558
Flags: MW
HStem: -11 20 241 62 441 57<510 638 510 510>
VStem: 58 55 440 21
Fore
410 345 m 0
 409 394 398 448 348 454 c 0
 323 458 306 453 287 438 c 2
 241 405 l 2
 155 343 112 236 113 166 c 0
 114 117 127 62 176 57 c 0
 200 54 214 64 235 76 c 2
 278 101 l 2
 352 143 411 275 410 345 c 0
441 263 m 1
 441 264 462 277 462 277 c 2
 479 288 487 303 508 303 c 0
 528 303 537 281 557 283 c 0
 566 284 572 286 578 292 c 2
 587 302 l 1
 597 294 l 1
 572 269 l 2
 555 252 540 242 519 242 c 0
 500 242 492 262 473 262 c 0
 463 261 456 260 448 254 c 2
 433 244 l 1
 397 150 l 2
 391 135 387 127 379 113 c 0
 367 93 356 81 339 63 c 2
 319 40 l 1
 397 40 l 2
 437 40 465 35 499 55 c 0
 521 68 539 73 536 108 c 2
 535 119 l 1
 567 156 l 1
 578 147 l 2
 588 138 579 109 570 99 c 0
 518 42 490 8 408 -6 c 0
 360 -14 332 -11 283 -6 c 2
 268 -4 l 1
 256 -7 247 -11 238 -5 c 2
 227 2 l 1
 262 41 l 1
 281 44 l 2
 299 47 310 50 320 74 c 0
 332 102 340 122 350 149 c 1
 333 130 312 113 289 98 c 2
 221 53 l 2
 188 31 169 10 129 8 c 0
 79 6 57 73 58 110 c 0
 61 207 136 348 237 417 c 2
 297 458 l 2
 331 481 353 498 394 500 c 0
 436 502 457 467 464 432 c 1
 490 498 l 1
 681 498 l 2
 686 498 689 494 692 490 c 0
 694 485 692 479 688 474 c 2
 630 411 l 1
 609 411 l 1
 638 441 l 1
 510 441 l 1
 441 263 l 1
EndSplineSet
EndChar
StartChar: oe
Encoding: 264 339
Width: 473
Flags: MW
HStem: -1 55 281 55
Fore
238 229 m 0
 233 255 222 283 196 281 c 0
 186 280 180 279 173 271 c 2
 157 254 l 2
 113 208 77 160 87 106 c 0
 92 80 103 52 128 54 c 0
 138 55 144 56 152 64 c 2
 167 81 l 2
 211 127 248 175 238 229 c 0
440 273 m 0
 437 295 411 306 395 305 c 0
 371 303 349 265 327 235 c 0
 324 231 321 226 318 222 c 1
 345 213 363 210 392 217 c 0
 427 224 444 247 440 273 c 0
292 247 m 1
 313 271 337 292 365 308 c 2
 402 330 l 2
 423 342 440 350 462 350 c 0
 484 350 502 325 502 300 c 0
 502 227 345 173 345 173 c 1
 327 168 314 166 297 165 c 1
 278 89 299 7 370 47 c 2
 442 87 l 1
 442 78 l 1
 333 17 l 2
 310 3 297 -11 270 -12 c 0
 237 -13 220 27 218 63 c 0
 217 82 220 103 227 125 c 1
 210 107 193 88 174 71 c 2
 157 54 l 2
 129 28 108 1 75 -1 c 0
 46 -2 36 32 32 61 c 0
 22 125 83 201 150 264 c 2
 165 278 l 2
 194 306 216 336 249 336 c 0
 278 336 288 303 292 274 c 0
 294 265 294 256 292 247 c 1
EndSplineSet
EndChar
StartChar: caron
Encoding: 265 711
Width: 0
Flags: W
Fore
230.786 448 m 1
 230.786 447 367.786 563 367.786 563 c 1
 395.786 563 l 1
 251.786 410 l 1
 185.786 410 l 1
 184.786 410 l 1
 142.786 563 l 1
 170.786 563 l 1
 230.786 448 l 1
EndSplineSet
EndChar
StartChar: longs
Encoding: 266 383
Width: 226
Flags: MW
HStem: -333 70 293 40<97 138> 597 70
Fore
138 293 m 1
 73 293 l 1
 97 333 l 1
 154 333 l 1
 217 482 l 2
 228 507 239 522 253 542 c 0
 271 568 286 577 311 595 c 2
 361 630 l 2
 384 646 414 666 431 667 c 0
 458 668 468 638 496 640 c 0
 508 641 516 642 526 648 c 2
 553 666 l 1
 559 660 l 1
 496 622 l 2
 473 608 463 597 433 597 c 0
 399 597 386 627 339 603 c 0
 315 591 305 573 294 548 c 2
 -2 -148 l 1
 -12 -173 -23 -188 -37 -209 c 0
 -54 -235 -69 -244 -94 -262 c 2
 -144 -297 l 2
 -168 -313 -198 -332 -214 -333 c 0
 -242 -335 -252 -305 -279 -307 c 0
 -291 -307 -299 -309 -309 -315 c 2
 -337 -333 l 1
 -343 -327 l 1
 -279 -288 l 2
 -257 -275 -247 -263 -216 -263 c 0
 -183 -263 -168 -297 -123 -270 c 0
 -104 -259 -88 -240 -78 -215 c 1
 138 293 l 1
EndSplineSet
EndChar
StartChar: ring
Encoding: 268 730
Script: 
Width: 0
Flags: W
HStem: 498 24.96<139 143> 597.841 24.96<139 143>
VStem: 78.5996 24.9604<558 562> 178.44 24.96<558 562>
Fore
141 597.841 m 0
 120.333 597.841 103.56 581.067 103.56 560.4 c 0
 103.56 539.733 120.333 522.96 141 522.96 c 0
 161.667 522.96 178.44 539.733 178.44 560.4 c 0
 178.44 581.067 161.667 597.841 141 597.841 c 0
141 622.801 m 0
 175.444 622.801 203.4 594.846 203.4 560.4 c 0
 203.4 525.956 175.444 498 141 498 c 0
 106.556 498 78.5996 525.956 78.5996 560.4 c 0
 78.5996 594.846 106.556 622.801 141 622.801 c 0
EndSplineSet
EndChar
StartChar: endash
Encoding: 270 8211
Script: 
Width: 407
Flags: W
HStem: 183 40<71 362>
Fore
72 223 m 1
 382 223 l 5
 362 183 l 5
 48 183 l 1
 72 223 l 1
EndSplineSet
EndChar
StartChar: emdash
Encoding: 271 8212
Script: 
Width: 631
Flags: W
HStem: 183 40<71 586>
Fore
72 223 m 1
 606 223 l 5
 586 183 l 5
 48 183 l 1
 72 223 l 1
EndSplineSet
EndChar
StartChar: partialdiff
Encoding: 279 8706
Script: 
Width: 306
Flags: MW
HStem: -1 55 281 55
Fore
137 81 m 2
 180 127 217 175 207 229 c 0
 202 255 191 283 165 281 c 0
 155 280 149 279 142 271 c 2
 126 254 l 2
 82 208 46 160 56 106 c 0
 61 80 72 52 97 54 c 0
 108 55 114 56 121 64 c 2
 137 81 l 2
250 314 m 1
 263 395 237 485 178 490 c 0
 155 492 139 490 118 482 c 1
 118 492 l 1
 145 512 177 519 202 521 c 0
 305 526 328 380 286 276 c 0
 276 252 269 232 253 212 c 1
 229 166 189 114 143 71 c 2
 126 54 l 2
 99 28 77 1 44 -1 c 0
 15 -2 5 32 1 61 c 0
 -14 159 163 338 218 336 c 0
 233 335 243 327 250 314 c 1
EndSplineSet
EndChar
StartChar: ff
Encoding: 283 64256
Width: 354
Flags: MW
HStem: -333 70 293 40<97 139 202 203 203 268 332 367> 597 70
Fore
203 333 m 1
 202 333 l 1
 202 333 285 333 284 333 c 1
 347 482 l 2
 358 507 388 549 388 549 c 1
 303 511 l 2
 298 509 278 497 274 491 c 0
 272 487 260 469 258 463 c 1
 203 333 l 1
268 293 m 1
 186 293 l 1
 -1 -148 l 1
 -11 -173 -43 -218 -43 -218 c 1
 44 -178 l 2
 48 -176 68 -163 72 -158 c 0
 75 -154 86 -136 88 -130 c 1
 268 293 l 1
316 293 m 1
 145 -107 l 2
 142 -114 128 -138 123 -142 c 1
 116 -150 102 -164 84 -172 c 2
 -52 -229 l 1
 -63 -240 -79 -251 -94 -262 c 2
 -144 -297 l 2
 -168 -313 -198 -332 -214 -333 c 0
 -242 -335 -252 -305 -279 -307 c 0
 -291 -307 -299 -309 -309 -315 c 2
 -337 -333 l 1
 -343 -327 l 1
 -279 -288 l 2
 -257 -275 -247 -263 -216 -263 c 0
 -183 -263 -173 -294 -125 -270 c 0
 -108 -262 -88 -241 -77 -215 c 2
 139 293 l 1
 73 293 l 1
 97 333 l 1
 156 333 l 1
 202 441 l 1
 204 447 219 472 223 476 c 0
 231 483 245 498 262 505 c 2
 399 562 l 1
 409 573 426 584 441 595 c 2
 491 630 l 2
 514 646 544 666 561 667 c 0
 588 668 598 638 626 640 c 0
 638 641 646 642 656 648 c 2
 683 666 l 1
 689 660 l 1
 626 622 l 2
 603 608 593 597 563 597 c 0
 529 597 516 627 469 603 c 0
 445 591 435 573 424 548 c 2
 332 333 l 1
 359 333 387 333 387 333 c 1
 367 293 l 1
 316 293 l 1
EndSplineSet
Ligature: 8 'liga' f f
AlternateSubs: 0 'swsh' ff.swash
LCarets: 0 '    ' 1 0 
EndChar
StartChar: fi
Encoding: 284 64257
Width: 356
Flags: MW
HStem: -333 70 291 42 597 70
Fore
203 333 m 1
 271 333 l 6
 298 333 315 333 342 333 c 4
 385 331 369 282 357 253 c 6
 288 93 l 6
 281 76 270 49 277 47 c 4
 283 44 289 51 295 57 c 6
 317 79 l 5
 323 73 l 5
 275 25 l 6
 256 6 232 -6 225 -2 c 4
 217 3 206 17 220 50 c 6
 297 233 l 6
 306 255 324 292 287 292 c 4
 276 292 270 293 259 293 c 6
 186 293 l 1
 -2 -148 l 1
 -12 -173 -23 -188 -37 -209 c 0
 -54 -235 -69 -244 -94 -262 c 2
 -144 -297 l 2
 -168 -313 -198 -332 -214 -333 c 0
 -242 -335 -252 -305 -279 -307 c 0
 -291 -307 -299 -309 -309 -315 c 2
 -337 -333 l 1
 -343 -327 l 1
 -279 -288 l 2
 -257 -275 -247 -263 -216 -263 c 0
 -183 -263 -168 -297 -123 -270 c 0
 -104 -259 -88 -240 -78 -215 c 1
 138 293 l 1
 73 293 l 1
 97 333 l 1
 154 333 l 1
 217 482 l 2
 228 507 239 522 253 542 c 0
 271 568 286 577 311 595 c 2
 361 630 l 2
 384 646 414 666 431 667 c 0
 458 668 468 638 496 640 c 0
 508 641 516 642 526 648 c 2
 553 666 l 1
 559 660 l 1
 496 622 l 2
 473 608 463 597 433 597 c 0
 399 597 386 627 339 603 c 0
 315 591 305 573 294 548 c 2
 203 333 l 1
425 457 m 4
 432 442 399 425 377 413 c 6
 270 360 l 5
 265 367 l 5
 360 440 l 6
 381 456 418 472 425 457 c 4
EndSplineSet
LCarets: 0 '    ' 1 0 
Ligature: 8 'liga' f i
EndChar
StartChar: fl
Encoding: 285 64258
Width: 348
Flags: HMW
HStem: -333 70 293 40<67 139 202 269> 597 70
Fore
287 333 m 5
 350 482 l 6
 364.208 515.603 373 526 392 550 c 5
 390 549.167 303 511 303 511 c 6
 298 509 278 497 274 491 c 4
 272 487 260 469 258 463 c 5
 202 333 l 5
 287 333 l 5
404.833 565.333 m 5
 409.166 569.999 433.832 588.529 443 595 c 6
 493 630 l 6
 517 646 547 666 563 667 c 4
 591 668 601 638 628 640 c 4
 640 641 648 642 658 648 c 6
 686 666 l 5
 692 660 l 5
 628 622 l 6
 606 608 596 597 565 597 c 4
 532 597 518 627 472 603 c 4
 448 591 437 573 427 548 c 5
 230 93 l 6
 223 77 212 52 222 47 c 4
 227 43 234 51 240 57 c 6
 262 79 l 5
 268 73 l 5
 220 25 l 6
 201 6 177 -6 170 -2 c 4
 162 3 151 17 165 50 c 6
 269 293 l 5
 186 293 l 5
 -1 -148 l 5
 -11 -173 -23 -188 -37 -209 c 4
 -54 -235 -69 -244 -94 -262 c 6
 -144 -297 l 6
 -168 -313 -198 -332 -214 -333 c 4
 -242 -335 -252 -305 -279 -307 c 4
 -291 -307 -299 -309 -309 -315 c 6
 -337 -333 l 5
 -343 -327 l 5
 -279 -288 l 6
 -257 -275 -247 -263 -216 -263 c 4
 -183 -263 -173 -294 -125 -270 c 4
 -108 -262 -88 -241 -77 -215 c 6
 139 293 l 5
 43 293 l 5
 67 333 l 5
 156 333 l 5
 202 441 l 5
 204 447 219 472 223 476 c 4
 231 483 245 498 262 505 c 5
 404.833 565.333 l 5
EndSplineSet
Ligature: 8 'liga' f l
EndChar
StartChar: ffi
Encoding: 286 64259
Width: 465
Flags: W
HStem: -333 70<-224.963 -216> 293 40<96 138 202 268 332 404> 597 70<561.031 563>
DStem: -279 -288 -309 -315 -343 -327 -337 -333 44 -178 84 -172 -43 -218 -52 -229 139 293 186 293 -77 -215 -1 -148 202 441 258 463 156 333 203 333 268 293 316 293 88 -130 145 -107 347 482 424 548 284 333 332 333 399 562 388 549 262 505 303 511 405 233 465 253 328 50 396 93 425 79 425 79 403 57 431 73 425 79 431 73 403 57 383 25 683 666 683 666 656 648 689 660 683 666 689 660 656 648 626 622
Fore
367 293 m 2
 316 293 l 1
 145 -107 l 2
 142 -114 128 -138 123 -142 c 1
 116 -150 102 -164 84 -172 c 2
 -52 -229 l 1
 -63 -240 -79 -251 -94 -262 c 2
 -144 -297 l 2
 -168 -313 -198 -332 -214 -333 c 0
 -242 -335 -252 -305 -279 -307 c 0
 -291 -307 -299 -309 -309 -315 c 2
 -337 -333 l 1
 -343 -327 l 1
 -279 -288 l 2
 -257 -275 -247 -263 -216 -263 c 0
 -183 -263 -173 -294 -125 -270 c 0
 -108 -262 -88 -241 -77 -215 c 2
 139 293 l 1
 73 293 l 1
 97 333 l 1
 156 333 l 1
 202 441 l 1
 204 447 219 472 223 476 c 0
 231 483 245 498 262 505 c 2
 399 562 l 1
 409 573 426 584 441 595 c 2
 491 630 l 2
 514 646 544 666 561 667 c 0
 588 668 598 638 626 640 c 0
 638 641 646 642 656 648 c 2
 683 666 l 1
 689 660 l 1
 626 622 l 2
 603 608 593 597 563 597 c 0
 529 597 516 627 469 603 c 0
 445 591 435 573 424 548 c 2
 332 333 l 1
 359 333 379 333 379 333 c 2
 406 333 423 333 450 333 c 0
 493 331 477 282 465 253 c 2
 396 93 l 2
 389 76 378 49 385 47 c 0
 391 44 397 51 403 57 c 2
 425 79 l 1
 431 73 l 1
 383 25 l 2
 364 6 340 -6 333 -2 c 0
 325 3 314 17 328 50 c 2
 405 233 l 2
 414 255 432 293 395 293 c 0
 384 293 378 293 367 293 c 2
533 457 m 0
 540 442 507 425 485 413 c 2
 378 360 l 1
 373 367 l 1
 468 440 l 2
 489 456 526 472 533 457 c 0
203 333 m 1
 202 333 l 1
 202 333 285 333 284 333 c 1
 347 482 l 2
 358 507 388 549 388 549 c 1
 303 511 l 2
 298 509 278 497 274 491 c 0
 272 487 260 469 258 463 c 1
 203 333 l 1
268 293 m 1
 186 293 l 1
 -1 -148 l 1
 -11 -173 -43 -218 -43 -218 c 1
 44 -178 l 2
 48 -176 68 -163 72 -158 c 0
 75 -154 86 -136 88 -130 c 1
 268 293 l 1
EndSplineSet
LCarets: 0 '    ' 2 0 0 
Ligature: 8 'liga' f f i
EndChar
StartChar: T.swash2
Encoding: 287 -1
Width: 478
Flags: MW
HStem: 10 57 407 48
VStem: 175 64
Fore
355 410 m 1
 285 350 237 270 239 193 c 0
 241 137 255 70 312 67 c 0
 340 65 357 71 380 88 c 2
 409 111 l 1
 414 103 l 1
 347 51 l 2
 316 27 296 12 258 10 c 0
 199 6 173 85 175 128 c 0
 179 232 234 331 333 413 c 1
 288 421 247 430 200 428 c 0
 144 424 78 338 117 310 c 0
 127 303 126 289 145 297 c 2
 168 308 l 1
 138 238 l 1
 113 225 l 2
 88 212 56 247 60 275 c 0
 71 352 148 463 257 475 c 0
 373 487 448 447 560 455 c 0
 597 457 618 476 613 502 c 1
 607 527 l 1
 667 563 l 1
 670 540 l 1
 682 434 493 412 433 408 c 0
 405 406 379 407 355 410 c 1
EndSplineSet
EndChar
StartChar: T_h
Encoding: 288 -1
Width: 665
Flags: MW
HStem: 10 57 288 45
VStem: 125 64
Fore
568 444 m 1
 598 442 627 441 650 442 c 0
 687 445 706 478 725 518 c 0
 746 562 755 596 707 617 c 0
 690 624 678 619 657 603 c 0
 634 587 622 573 612 548 c 1
 568 444 l 1
484 247 m 1
 532 292 l 2
 557 316 581 331 615 333 c 0
 642 335 656 289 640 248 c 0
 613 181 543 50 585 53 c 0
 595 54 602 57 610 63 c 2
 628 77 l 1
 630 65 l 1
 580 30 l 2
 558 15 533 -11 520 -2 c 0
 458 42 643 289 568 288 c 0
 549 288 537 279 523 265 c 2
 468 208 l 1
 396 38 l 1
 330 2 l 1
 498 394 l 1
 432 394 366 403 307 412 c 1
 236 351 187 270 189 193 c 0
 191 137 205 70 262 67 c 0
 290 65 307 72 330 88 c 2
 352 103 l 1
 357 95 l 1
 297 51 l 2
 266 28 246 12 208 10 c 0
 149 6 123 85 125 128 c 0
 129 233 185 332 284 415 c 1
 230 422 183 430 150 428 c 0
 94 424 28 338 67 310 c 0
 77 303 76 289 95 297 c 2
 118 308 l 1
 88 238 l 1
 63 225 l 2
 38 212 6 247 10 275 c 0
 21 352 98 463 207 475 c 0
 287 483 413 462 521 449 c 1
 535 482 l 2
 546 507 557 522 571 542 c 0
 588 568 602 579 628 597 c 2
 678 630 l 2
 702 646 724 653 741 652 c 0
 818 645 796 516 730 473 c 2
 650 420 l 2
 616 398 581 397 548 396 c 1
 484 247 l 1
EndSplineSet
Ligature: 8 'liga' T.swash h
LCarets: 0 '    ' 1 0 
EndChar
StartChar: ffl
Encoding: 289 64260
Width: 481
Flags: W
HStem: -333 70<-224.963 -216 -91.9632 -83> 293 40<96 138 203 272 335 401> 597 70<696.031 698>
DStem: -279 -288 -309 -315 -343 -327 -337 -333 139 293 186 293 -77 -215 -1 -148 186.167 405.667 242.167 427.667 156 333 203 333 272 293 319 293 56 -215 132 -148 349.167 472.667 405.167 494.667 289 333 335 333 395 79 395 79 373 57 401 73 395 79 401 73 373 57 353 25 402 293 560 548 298 50 363 93 483 482 560 548 420 333 363 93 578 606 565.167 590.667 246.167 469.667 450.167 542.667 578 606 379.895 516.595 246.167 469.667 287.167 475.667 819 666 819 666 791 648 825 660 819 666 825 660 791 648 761 622
Fore
420 333 m 5
 483 482 l 6
 497.208 515.604 534 568 565.167 590.667 c 5
 563.167 589.834 450.167 542.667 450.167 542.667 c 6
 445.167 540.667 425.167 528.667 421.167 522.667 c 4
 419.167 518.667 407.167 500.667 405.167 494.667 c 5
 335 333 l 5
 420 333 l 5
-162.261 -308.888 m 5
 -177.615 -316.214 -193 -328 -205.67 -331.33 c 5
 -208.731 -332.263 -211.532 -332.846 -214 -333 c 4
 -242 -335 -252 -305 -279 -307 c 4
 -291 -307 -299 -309 -309 -315 c 6
 -337 -333 l 5
 -343 -327 l 5
 -279 -288 l 6
 -257 -275 -247 -263 -216 -263 c 4
 -183 -263 -173 -294 -125 -270 c 4
 -108 -262 -88 -241 -77 -215 c 6
 139 293 l 5
 73 293 l 5
 97 333 l 5
 156 333 l 5
 186.167 405.667 l 5
 188.167 411.667 203.167 436.667 207.167 440.667 c 4
 215.167 447.667 229.161 462.681 246.167 469.667 c 6
 578 606 l 5
 578 606 605 621 626 630 c 5
 650 646 680 666 696 667 c 4
 724 668 734 638 761 640 c 4
 773 641 781 642 791 648 c 6
 819 666 l 5
 825 660 l 5
 761 622 l 6
 739 608 729 597 698 597 c 4
 665 597 651 627 605 603 c 4
 581 591 570 573 560 548 c 5
 363 93 l 6
 356 77 345 52 355 47 c 4
 360 43 367 51 373 57 c 6
 395 79 l 5
 401 73 l 5
 353 25 l 6
 334 6 310 -6 303 -2 c 4
 295 3 284 17 298 50 c 6
 402 293 l 5
 319 293 l 5
 132 -148 l 5
 122 -173 110 -188 96 -209 c 4
 79 -235 64 -244 39 -262 c 6
 -11 -297 l 6
 -35 -313 -65 -332 -81 -333 c 4
 -109 -335 -119 -305 -146 -307 c 4
 -152.216 -307 -157.358 -307.537 -162.261 -308.888 c 5
379.895 516.595 m 5
 287.167 475.667 l 6
 282.167 473.667 262.167 461.667 258.167 455.667 c 4
 256.167 451.667 244.167 433.667 242.167 427.667 c 5
 203 333 l 5
 289 333 l 5
 349.167 472.667 l 5
 351.167 478.667 366.167 503.667 370.167 507.667 c 4
 379.895 516.595 l 5
-96.7528 -263.927 m 5
 -92.6397 -263.325 -88.1046 -263 -83 -263 c 4
 -50 -263 -40 -294 8 -270 c 4
 25 -262 45 -241 56 -215 c 6
 272 293 l 5
 186 293 l 5
 -1 -148 l 5
 -11 -173 -23 -188 -37 -209 c 4
 -54 -235 -69 -244 -94 -262 c 6
 -96.7528 -263.927 l 5
EndSplineSet
Ligature: 8 'liga' f f l
LCarets: 0 '    ' 2 0 0 
EndChar
StartChar: longs_longs_l
Encoding: 290 -1
Width: 481
Flags: W
HStem: -333 70<-224.963 -216 -91.9632 -83> 293 40<96 138> 597 70<696.031 698>
DStem: -279 -288 -309 -315 -343 -327 -337 -333 139 293 242.167 427.667 -77 -215 -1 -148 186.167 405.667 242.167 427.667 156 333 -1 -148 349.167 472.667 405.167 494.667 56 -215 132 -148 395 79 395 79 373 57 401 73 395 79 401 73 373 57 353 25 483 482 560 548 298 50 363 93 578 606 565.167 590.667 246.167 469.667 450.167 542.667 578 606 379.895 516.595 246.167 469.667 287.167 475.667 819 666 819 666 791 648 825 660 819 666 825 660 791 648 761 622
Fore
483 482 m 5
 497.208 515.604 534 568 565.167 590.667 c 1
 563.167 589.834 450.167 542.667 450.167 542.667 c 2
 445.167 540.667 425.167 528.667 421.167 522.667 c 0
 419.167 518.667 407.167 500.667 405.167 494.667 c 1
 132 -148 l 1
 122 -173 110 -188 96 -209 c 0
 79 -235 64 -244 39 -262 c 2
 -11 -297 l 2
 -35 -313 -65 -332 -81 -333 c 0
 -109 -335 -119 -305 -146 -307 c 0
 -152.216 -307 -157.358 -307.537 -162.261 -308.888 c 1
 -177.615 -316.214 -193 -328 -205.67 -331.33 c 1
 -208.731 -332.263 -211.532 -332.846 -214 -333 c 0
 -242 -335 -252 -305 -279 -307 c 0
 -291 -307 -299 -309 -309 -315 c 2
 -337 -333 l 1
 -343 -327 l 1
 -279 -288 l 2
 -257 -275 -247 -263 -216 -263 c 0
 -183 -263 -173 -294 -125 -270 c 0
 -108 -262 -88 -241 -77 -215 c 2
 139 293 l 1
 73 293 l 1
 97 333 l 1
 156 333 l 1
 186.167 405.667 l 1
 188.167 411.667 203.167 436.667 207.167 440.667 c 0
 215.167 447.667 229.161 462.681 246.167 469.667 c 2
 578 606 l 1
 578 606 605 621 626 630 c 1
 650 646 680 666 696 667 c 0
 724 668 734 638 761 640 c 0
 773 641 781 642 791 648 c 2
 819 666 l 1
 825 660 l 1
 761 622 l 2
 739 608 729 597 698 597 c 0
 665 597 651 627 605 603 c 0
 581 591 570 573 560 548 c 1
 363 93 l 2
 356 77 345 52 355 47 c 0
 360 43 367 51 373 57 c 2
 395 79 l 1
 401 73 l 1
 353 25 l 2
 334 6 310 -6 303 -2 c 0
 295 3 283.809 17.082 298 50 c 1
 483 482 l 5
349.167 472.667 m 1
 351.167 478.667 366.167 503.667 370.167 507.667 c 0
 379.895 516.595 l 1
 287.167 475.667 l 2
 282.167 473.667 262.167 461.667 258.167 455.667 c 0
 256.167 451.667 244.167 433.667 242.167 427.667 c 1
 -1 -148 l 1
 -11 -173 -23 -188 -37 -209 c 0
 -54 -235 -69 -244 -94 -262 c 2
 -96.7528 -263.927 l 1
 -92.6397 -263.325 -88.1046 -263 -83 -263 c 0
 -50 -263 -40 -294 8 -270 c 0
 25 -262 44.9541 -240.98 56 -215 c 1
 349.167 472.667 l 1
EndSplineSet
Ligature: 8 'liga' longs longs l
LCarets: 0 '    ' 2 0 0 
EndChar
StartChar: a_s
Encoding: 291 -1
Width: 624
Flags: MW
HStem: 0 57
VStem: 390 62
Fore
520 218 m 1
 525 221 l 2
 549 233 574 256 573 272 c 0
 572 302 547 316 513 313 c 0
 482 309 452 279 452 262 c 0
 452 233 485 226 520 218 c 1
212 291 m 2
 213 291 l 2
 206 291 167 286 140 257 c 0
 97 209 59 162 69 108 c 0
 74 82 83 55 112 57 c 0
 123 57 137 70 146 78 c 1
 203 136 l 1
 251 247 l 1
 251 260 258 291 212 291 c 2
301 304 m 1
 333 328 l 1
 236 93 l 2
 231 81 231 64 237 60 c 0
 242 57 263 58 278 67 c 2
 444 171 l 1
 415 177 389 187 390 220 c 0
 391 257 452 312 514 337 c 0
 539 347 551 353 581 353 c 0
 610 353 639 342 644 313 c 0
 650 283 619 269 593 253 c 2
 533 215 l 1
 569 207 603 196 602 160 c 0
 600 100 545 32 473 -5 c 0
 442 -21 417 -31 387 -31 c 0
 353 -31 319 -13 315 21 c 0
 311 56 342 73 373 89 c 2
 420 113 l 1
 422 103 l 1
 402 94 l 2
 388 88 382 77 378 63 c 0
 370 26 422 8 459 10 c 0
 512 12 537 72 532 125 c 0
 528 157 489 163 459 168 c 1
 225 21 l 2
 203 7 179 -6 173 -2 c 0
 165 3 153 17 167 50 c 2
 193 109 l 1
 113 30 l 2
 96 13 76 0 58 0 c 0
 28 0 16 34 13 63 c 0
 5 128 68 202 133 267 c 2
 152 286 l 2
 168 302 227 341 256 336 c 0
 284 331 292 316 301 304 c 1
EndSplineSet
LCarets: 0 '    ' 1 0 
Ligature: 8 'liga' a s
EndChar
StartChar: T.swash
Encoding: 292 -1
Width: 324
Flags: MW
HStem: 407 48
VStem: 128 69
Fore
332 414 m 1
 289 422 249 430 205 428 c 0
 149 424 83 338 122 310 c 0
 132 303 131 289 150 297 c 2
 173 308 l 1
 143 238 l 1
 118 225 l 2
 93 212 61 247 65 275 c 0
 76 352 153 463 262 475 c 0
 313 481 357 476 398 469 c 1
 398 470 399 470 399 470 c 1
 399 470 400 469 399 469 c 0
 452 462 503 451 565 455 c 0
 602 457 623 476 618 502 c 1
 612 527 l 1
 672 563 l 1
 675 540 l 1
 687 434 498 411 438 408 c 0
 408 406 383 407 358 411 c 1
 269 319 194 169 197 73 c 0
 198 -2 213 -87 287 -99 c 0
 330 -107 357 -88 396 -65 c 2
 472 -18 l 1
 479 -30 l 1
 348 -116 l 2
 308 -142 282 -161 235 -163 c 0
 158 -167 126 -70 127 -12 c 0
 131 123 208 297 332 414 c 1
EndSplineSet
EndChar
StartChar: W.swash
Encoding: 293 -1
Width: 718
Flags: MW
HStem: -6 20
VStem: 386 64 485 70
Fore
444 308 m 1
 444 307 l 1
 468 342 483 377 485 413 c 0
 486 442 478 480 463 482 c 0
 442 484 440 422 442 382 c 1
 444 308 l 1
379 234 m 1
 373 347 l 1
 366 455 448 528 505 532 c 0
 538 535 557 494 555 460 c 0
 552 386 508 326 446 270 c 1
 455 48 l 1
 492 72 l 2
 575 125 620 200 652 270 c 0
 691 357 688 417 672 500 c 1
 740 542 l 1
 748 509 753 490 752 457 c 0
 749 365 723 307 672 228 c 0
 613 138 539 90 437 23 c 2
 392 -6 l 1
 380 215 l 1
 333 178 280 142 231 102 c 0
 200 77 184 62 153 36 c 2
 110 -1 l 1
 97 0 l 1
 139 47 l 2
 207 124 233 213 243 288 c 0
 257 394 193 496 103 487 c 0
 78 484 63 478 42 465 c 1
 37 471 l 1
 78 503 l 2
 104 523 123 534 156 537 c 0
 246 543 318 452 311 362 c 0
 305 287 291 228 248 155 c 2
 225 115 l 1
 259 139 l 2
 302 169 343 201 379 234 c 1
EndSplineSet
EndChar
StartChar: f.swash
Encoding: 294 -1
Width: 457
Flags: MW
HStem: -333 70 295 38<272 273.5 272 363 427 463> 597 70
Fore
411 295 m 1
 223 -148 l 2
 212 -173 202 -188 188 -209 c 0
 170 -235 155 -244 130 -262 c 2
 80 -297 l 2
 57 -313 27 -332 10 -333 c 0
 -18 -335 -28 -305 -55 -307 c 0
 -67 -307 -75 -309 -85 -315 c 2
 -112 -333 l 1
 -118 -327 l 1
 -55 -288 l 2
 -33 -275 -23 -263 8 -263 c 0
 42 -263 57 -297 102 -270 c 0
 120 -259 136 -240 147 -215 c 2
 363 295 l 1
 338 295 308 295 239 295 c 0
 182 295 132 290 108 230 c 0
 97 205 92 195 84 173 c 2
 74 147 l 1
 2 82 l 1
 16 115 l 1
 24 136 23 134 37 168 c 0
 66 236 167 333 272 333 c 0
 327 333 355 333 378 333 c 1
 442 482 l 1
 452 507 463 522 477 542 c 0
 495 568 510 577 535 595 c 2
 585 630 l 2
 608 646 638 666 655 667 c 0
 683 668 693 638 720 640 c 0
 732 641 740 642 750 648 c 2
 777 666 l 1
 783 660 l 1
 720 622 l 2
 698 608 688 597 657 597 c 0
 623 597 610 627 563 603 c 0
 539 591 529 573 518 548 c 2
 427 333 l 1
 436 333 501 333 501 333 c 1
 463 295 l 1
 463 295 418 295 411 295 c 1
EndSplineSet
EndChar
StartChar: c.join
Encoding: 295 -1
Width: 283
Flags: MW
HStem: -12 20 514 38
Fore
245 344 m 1
 262 339 267 320 304 332 c 2
 322 338 l 1
 326 326 l 1
 281 299 l 2
 261 287 252 274 225 277 c 0
 201 279 187 298 172 297 c 0
 147 295 136 267 117 237 c 0
 65 154 68 -6 162 47 c 2
 233 87 l 1
 233 78 l 1
 125 17 l 2
 102 3 88 -11 62 -12 c 0
 28 -13 12 27 10 63 c 0
 7 137 58 255 155 310 c 2
 192 331 l 1
 158 349 l 2
 129 365 109 385 107 418 c 0
 101 498 205 552 310 552 c 0
 419 552 443 552 529 552 c 2
 562 552 l 1
 534 513 l 1
 507 513 l 2
 417 513 400 513 277 513 c 0
 219 513 154 519 145 448 c 0
 140 408 150 396 205 366 c 2
 245 344 l 1
EndSplineSet
EndChar
StartChar: t_period
Encoding: 296 -1
Width: 443
Flags: HMW
HStem: -1 20
Fore
240 418 m 1
 205 333 l 1
 267 333 l 1
 247 293 l 1
 188 293 l 1
 103 92 l 2
 96 76 85 52 90 47 c 0
 95 42 99 37 116 37 c 2
 278 37 l 2
 331 37 339 49 372 83 c 0
 400 113 379 162 347 143 c 2
 326 132 l 1
 351 166 l 2
 361 179 375 184 392 181 c 0
 405 178 414 168 419 158 c 0
 430 138 400 93 387 80 c 2
 368 62 l 2
 353 47 355 45 324 27 c 0
 295 11 276 0 242 0 c 2
 107 0 l 2
 82 0 49 -3 42 2 c 0
 35 7 23 17 38 50 c 1
 143 293 l 1
 73 293 l 1
 240 418 l 1
204 97 m 1
 258 151 l 1
 310 97 l 1
 258 43 l 1
 204 97 l 1
EndSplineSet
Ligature: 8 'liga' t period
LCarets: 0 '    ' 1 0 
EndChar
StartChar: M.swash
Encoding: 297 -1
Width: 777
Flags: MW
HStem: 440 58
Fore
593 506 m 1
 649 103 l 2
 652 82 650 57 671 53 c 0
 684 51 692 58 702 65 c 2
 722 78 l 1
 728 72 l 1
 686 43 l 2
 659 25 629 6 609 9 c 0
 589 12 584 63 579 100 c 2
 542 378 l 1
 409 48 l 1
 349 7 l 1
 293 407 l 1
 103 -67 l 1
 82 -118 -16 -211 -64 -213 c 0
 -186 -219 -239 -115 -264 -87 c 2
 -272 -78 l 1
 -221 -27 l 1
 -218 -32 l 1
 -212 -39 -142 -176 -31 -167 c 0
 -10 -165 31 -121 48 -78 c 2
 257 439 l 1
 190 441 l 2
 162 442 142 441 117 433 c 0
 89 425 67 411 55 394 c 0
 35 366 68 351 102 369 c 2
 123 381 l 1
 95 342 l 2
 79 319 57 303 31 312 c 0
 17 318 2 324 2 339 c 0
 1 359 17 375 34 392 c 2
 57 416 l 2
 88 447 115 466 147 482 c 0
 175 497 195 498 227 498 c 2
 353 498 l 1
 397 142 l 1
 529 470 l 1
 593 506 l 1
EndSplineSet
EndChar
StartChar: H.swash
Encoding: 298 -1
Width: 471
Flags: MW
HStem: 220 45 597 70
VStem: 31 52
Fore
386 244 m 1
 487 482 l 2
 498 507 509 522 523 542 c 0
 541 568 556 577 581 595 c 2
 631 630 l 2
 654 646 684 666 701 667 c 0
 728 668 738 638 766 640 c 0
 778 641 786 642 796 648 c 2
 823 666 l 1
 829 660 l 1
 766 622 l 2
 743 608 733 597 703 597 c 0
 669 597 656 627 609 603 c 0
 585 591 575 573 564 548 c 2
 432 242 l 1
 460 243 478 238 505 251 c 2
 554 274 l 1
 559 267 l 1
 487 228 l 2
 458 212 440 203 413 198 c 1
 368 93 l 2
 361 77 350 52 359 47 c 0
 364 43 372 51 377 57 c 1
 400 79 l 1
 406 73 l 1
 358 25 l 2
 338 6 314 -6 308 -2 c 0
 300 3 288 17 302 50 c 2
 364 194 l 1
 317 197 278 217 230 220 c 1
 230 221 128 -33 128 -33 c 1
 102 -96 -8 -206 -51 -223 c 0
 -153 -266 -180 -200 -206 -172 c 1
 -213 -163 l 1
 -163 -112 l 1
 -159 -117 l 2
 -153 -124 -117 -188 -43 -177 c 0
 5 -169 41 -130 62 -78 c 2
 181 218 l 1
 148 212 124 197 93 177 c 1
 77 187 l 1
 102 205 l 2
 133 228 164 243 195 253 c 1
 278 460 l 1
 257 463 l 2
 228 468 212 471 184 470 c 0
 144 469 84 469 83 448 c 0
 80 418 113 415 131 425 c 2
 152 437 l 1
 124 398 l 2
 108 375 87 354 62 362 c 0
 45 368 32 377 31 395 c 0
 30 415 43 427 57 443 c 2
 82 474 l 2
 95 489 106 497 123 506 c 0
 162 526 240 522 301 513 c 2
 346 506 l 1
 346 506 247 264 247 263 c 1
 254 264 262 265 268 265 c 0
 313 266 345 251 386 244 c 1
EndSplineSet
EndChar
StartChar: G.swash
Encoding: 299 -1
Width: 430
Flags: MW
HStem: 9 53 451 46
VStem: 47 59
Fore
207 46 m 2
 181 20 159 11 123 9 c 0
 69 7 46 78 47 119 c 0
 49 224 133 376 238 455 c 0
 274 481 303 494 345 497 c 0
 364 498 373 485 392 483 c 0
 400 483 406 479 412 482 c 2
 419 486 l 1
 424 479 l 1
 408 468 l 2
 388 453 374 443 349 440 c 0
 325 437 313 451 288 451 c 0
 273 451 266 456 249 443 c 0
 176 388 104 255 106 179 c 0
 107 127 121 65 173 62 c 0
 199 60 216 67 235 85 c 2
 287 135 l 1
 289 142 l 1
 283 145 275 147 268 147 c 0
 258 147 250 148 242 142 c 2
 214 121 l 1
 209 125 l 1
 230 153 l 2
 246 175 259 190 286 195 c 0
 310 199 322 180 347 181 c 0
 361 181 372 179 383 188 c 2
 407 209 l 1
 407 193 l 1
 379 165 l 2
 366 152 359 141 342 135 c 0
 333 132 327 132 319 133 c 1
 244 -64 l 2
 233 -93 223 -108 205 -132 c 0
 173 -174 114 -224 84 -199 c 2
 65 -183 l 1
 100 -148 l 1
 113 -153 l 2
 123 -157 131 -157 142 -155 c 0
 191 -148 201 -105 217 -60 c 2
 281 119 l 1
 207 46 l 2
EndSplineSet
EndChar
StartChar: s.join
Encoding: 300 -1
Width: 313
Flags: MW
HStem: -13 33 285 43 514 38
VStem: 69 62 210 70
Fore
195 334 m 0
 196 334 168 349 168 349 c 2
 137 367 117 387 114 422 c 0
 108 503 215 552 320 552 c 0
 429 552 453 552 539 552 c 2
 572 552 l 1
 544 513 l 1
 517 513 l 2
 427 513 410 513 287 513 c 0
 229 513 164 519 155 448 c 0
 150 408 160 396 215 366 c 2
 265 338 l 1
 264 338 l 2
 271 333 278 328 288 328 c 0
 300 328 309 327 318 333 c 2
 330 342 l 1
 338 338 l 1
 307 315 l 2
 283 298 266 286 237 285 c 0
 212 284 200 305 177 300 c 0
 154 295 130 274 130 262 c 0
 131 202 282 235 280 160 c 0
 278 100 216 36 140 5 c 0
 112 -7 92 -13 62 -13 c 0
 28 -13 -6 4 -10 38 c 0
 -14 73 17 91 48 107 c 2
 95 130 l 1
 97 120 l 1
 77 112 l 2
 63 106 57 94 53 80 c 0
 44 44 90 22 127 20 c 0
 178 17 211 73 210 125 c 0
 209 192 67 143 68 220 c 0
 69 250 139 307 195 334 c 0
EndSplineSet
EndChar
StartChar: e_s
Encoding: 301 -1
Width: 833
Flags: MW
HStem: -31 41 305 45
VStem: 322 62
Fore
110 222 m 1
 137 213 155 210 183 217 c 0
 218 224 236 247 232 273 c 0
 228 295 202 306 187 305 c 0
 162 303 140 265 118 235 c 0
 115 231 113 227 110 222 c 1
453 218 m 1
 457 221 l 2
 482 233 506 256 506 272 c 0
 505 302 479 316 445 313 c 0
 414 309 384 279 384 262 c 0
 384 233 417 226 453 218 c 1
374 171 m 1
 346 177 322 187 323 220 c 0
 323 257 385 312 447 337 c 0
 472 347 483 353 513 353 c 0
 542 353 571 342 577 313 c 0
 582 283 552 269 526 253 c 2
 466 215 l 1
 502 207 535 196 534 160 c 0
 533 100 477 32 405 -5 c 0
 374 -21 349 -31 319 -31 c 0
 285 -31 252 -13 248 21 c 0
 243 56 274 73 306 89 c 2
 352 113 l 1
 354 103 l 1
 334 94 l 2
 320 88 314 77 311 63 c 0
 303 26 354 8 392 10 c 0
 444 12 469 72 464 125 c 0
 461 158 426 162 392 168 c 1
 157 26 l 2
 122 5 88 -11 62 -12 c 0
 28 -13 12 27 10 63 c 0
 7 137 61 252 157 308 c 2
 193 330 l 2
 214 342 232 350 253 350 c 0
 276 350 291 325 293 300 c 0
 296 275 283 257 262 243 c 2
 217 215 l 2
 187 196 170 182 137 173 c 0
 118 168 106 166 88 165 c 1
 72 88 95 7 164 47 c 2
 374 171 l 1
EndSplineSet
LCarets: 0 '    ' 1 0 
Ligature: 8 'liga' e s
EndChar
StartChar: o.join
Encoding: 302 -1
Width: 292
Flags: MW
HStem: -1 55 514 38
Fore
238 229 m 0
 233 255 222 283 196 281 c 0
 186 280 180 279 173 271 c 2
 157 254 l 2
 113 208 77 160 87 106 c 0
 92 80 103 52 128 54 c 0
 138 55 144 56 152 64 c 2
 167 81 l 2
 211 127 248 175 238 229 c 0
210 321 m 1
 158 349 l 2
 129 365 109 385 107 418 c 0
 101 498 205 552 310 552 c 0
 419 552 443 552 529 552 c 2
 562 552 l 1
 534 513 l 1
 507 513 l 2
 417 513 400 513 277 513 c 0
 219 513 154 519 145 448 c 0
 140 408 150 396 205 366 c 2
 255 338 l 1
 252 336 l 1
 279 334 288 302 292 274 c 0
 302 210 241 134 174 71 c 2
 157 54 l 2
 129 28 108 1 75 -1 c 0
 46 -2 36 32 32 61 c 0
 22 125 83 201 150 264 c 2
 165 278 l 2
 181 293 195 310 210 321 c 1
EndSplineSet
EndChar
StartChar: t.swash
Encoding: 303 -1
Width: 443
Flags: HMW
HStem: -1 20 38 256
Fore
240 418 m 1
 205 333 l 1
 267 333 l 1
 247 293 l 1
 188 293 l 1
 103 92 l 2
 96 76 85 52 90 47 c 0
 95 42 99 37 116 37 c 2
 278 37 l 2
 331 37 339 49 372 83 c 0
 400 113 379 162 347 143 c 2
 326 132 l 1
 351 166 l 2
 361 179 375 184 392 181 c 0
 405 178 414 168 419 158 c 0
 430 138 400 93 387 80 c 2
 368 62 l 2
 353 47 355 45 324 27 c 0
 295 11 276 0 242 0 c 2
 107 0 l 2
 82 0 49 -3 42 2 c 0
 35 7 23 17 38 50 c 1
 143 293 l 1
 73 293 l 1
 240 418 l 1
EndSplineSet
EndChar
StartChar: m.alt
Encoding: 304 -1
Width: 503
Flags: MW
HStem: 292 48
Fore
301 229 m 1
 279 173 265 135 238 75 c 1
 220 33 l 1
 152 0 l 1
 233 197 l 1
 246 227 284 288 238 288 c 0
 225 288 212 279 200 268 c 1
 167 234 l 1
 85 37 l 1
 23 2 l 1
 115 233 l 2
 124 255 143 292 105 292 c 0
 95 292 88 293 80 287 c 2
 62 273 l 1
 58 282 l 1
 102 313 l 2
 122 328 133 341 160 340 c 0
 196 339 192 303 182 272 c 1
 208 298 l 2
 232 322 251 332 285 333 c 0
 321 335 324 302 314 266 c 1
 343 295 l 2
 364 316 392 331 427 333 c 0
 453 335 468 292 448 247 c 2
 343 8 l 2
 320 -44 304 -76 268 -120 c 0
 238 -157 218 -173 180 -203 c 2
 132 -242 l 1
 125 -233 l 1
 160 -202 l 2
 192 -173 202 -151 225 -115 c 0
 257 -67 272 -38 295 15 c 2
 384 218 l 2
 396 246 408 288 380 288 c 0
 369 288 349 277 336 264 c 2
 301 229 l 1
EndSplineSet
EndChar
StartChar: w.alt
Encoding: 305 -1
Width: 511
Flags: HMW
HStem: -3 20 330 20
Fore
294 206 m 1
 304 222 311 239 314 263 c 0
 317 280 312 305 306 305 c 0
 296 305 291 275 291 255 c 0
 291 238 292 222 294 206 c 1
232 137 m 1
 227 162 225 187 226 217 c 0
 227 289 316 353 351 350 c 0
 381 347 379 300 369 270 c 0
 356 232 333 197 301 165 c 1
 308 133 318 107 326 92 c 2
 344 58 l 1
 383 105 l 2
 403 130 412 147 424 177 c 0
 439 214 443 238 446 278 c 2
 448 305 l 1
 506 338 l 1
 508 313 l 1
 512 243 484 177 442 130 c 0
 420 105 409 85 381 67 c 2
 282 2 l 1
 267 37 l 2
 255 65 246 88 239 112 c 1
 210 89 187 72 152 48 c 2
 77 -3 l 1
 65 0 l 1
 93 44 l 2
 123 93 130 146 125 188 c 0
 121 223 97 295 33 290 c 0
 25 289 19 289 12 285 c 2
 -17 268 l 1
 -20 277 l 1
 18 302 l 2
 43 318 61 332 88 334 c 0
 142 337 186 287 195 232 c 0
 204 179 187 137 178 113 c 2
 168 87 l 1
 228 134 l 1
 232 137 l 1
EndSplineSet
EndChar
StartChar: N.swash
Encoding: 306 -1
Width: 777
Flags: MW
HStem: 441 57<209 258> 597 70
Fore
272 355 m 1
 103 -67 l 1
 82 -118 -16 -211 -64 -213 c 0
 -186 -219 -239 -115 -264 -87 c 2
 -272 -78 l 1
 -221 -27 l 1
 -218 -32 l 1
 -212 -39 -142 -176 -31 -167 c 0
 -10 -165 31 -121 48 -78 c 2
 258 441 l 1
 173 441 l 2
 144 441 124 441 99 433 c 0
 72 425 49 411 38 394 c 0
 18 366 50 351 84 369 c 2
 106 381 l 1
 78 342 l 2
 61 319 39 303 13 312 c 0
 -1 318 -15 324 -16 339 c 0
 -17 359 -1 375 17 392 c 1
 40 416 l 2
 71 447 98 466 129 482 c 0
 158 497 177 498 209 498 c 2
 306 498 l 1
 306 498 369 97 369 96 c 1
 534 482 l 2
 545 507 556 522 570 542 c 0
 588 568 602 577 627 595 c 2
 677 630 l 2
 701 646 731 666 747 667 c 0
 775 668 785 638 812 640 c 0
 824 641 832 642 842 648 c 2
 870 666 l 1
 876 660 l 1
 813 622 l 2
 790 608 780 597 749 597 c 0
 716 597 703 627 656 603 c 0
 632 591 621 573 611 548 c 1
 382 11 l 1
 389 -30 l 2
 398 -82 421 -118 487 -122 c 0
 527 -125 556 -125 587 -98 c 1
 639 -50 l 1
 652 -60 l 1
 599 -107 l 2
 550 -152 509 -191 444 -178 c 0
 392 -167 348 -137 339 -83 c 1
 272 355 l 1
EndSplineSet
EndChar
StartChar: longs_longs
Encoding: 307 -1
Width: 326
Flags: MW
HStem: -333 70 293 40<97 139> 597 70
Fore
388 549 m 1
 303 511 l 2
 298 509 278 497 274 491 c 0
 272 487 260 469 258 463 c 1
 -1 -148 l 1
 -11 -173 -42 -216 -42 -216 c 1
 44 -178 l 2
 48 -176 68 -163 72 -158 c 0
 75 -154 86 -136 88 -130 c 1
 347 482 l 2
 358 507 388 549 388 549 c 1
139 293 m 1
 73 293 l 1
 97 333 l 1
 156 333 l 1
 202 441 l 1
 204 447 219 472 223 476 c 0
 231 483 245 498 262 505 c 2
 399 562 l 1
 407 572 428 586 441 595 c 2
 491 630 l 2
 514 646 544 666 561 667 c 0
 588 668 598 638 626 640 c 0
 638 641 646 642 656 648 c 2
 683 666 l 1
 689 660 l 1
 626 622 l 2
 603 608 593 597 563 597 c 0
 529 597 516 627 469 603 c 0
 445 591 435 573 424 548 c 2
 145 -107 l 2
 142 -114 128 -138 123 -142 c 1
 116 -150 102 -164 84 -172 c 2
 -52 -229 l 1
 -57 -236 -73 -247 -94 -262 c 2
 -144 -297 l 2
 -168 -313 -198 -332 -214 -333 c 0
 -242 -335 -252 -305 -279 -307 c 0
 -291 -307 -299 -309 -309 -315 c 2
 -337 -333 l 1
 -343 -327 l 1
 -279 -288 l 2
 -257 -275 -247 -263 -216 -263 c 0
 -183 -263 -173 -294 -125 -270 c 0
 -108 -262 -88 -241 -77 -215 c 2
 139 293 l 1
EndSplineSet
LCarets: 0 '    ' 1 0 
Ligature: 8 'liga' longs longs
EndChar
StartChar: ff.swash
Encoding: 308 -1
Width: 305
Flags: MW
HStem: -333 70 293 40<97 139 202 262 326 337>
Fore
278 333 m 1
 351 504 l 2
 358 520 362 526 373 543 c 1
 303 511 l 2
 298 509 278 497 274 491 c 0
 272 487 260 469 258 463 c 1
 202 333 l 1
 278 333 l 1
309 293 m 1
 139 -107 l 2
 136 -114 122 -138 118 -142 c 0
 110 -150 96 -164 78 -172 c 2
 -48 -225 l 1
 -62 -240 -75 -248 -94 -262 c 2
 -144 -297 l 2
 -168 -313 -198 -332 -214 -333 c 0
 -242 -335 -252 -305 -279 -307 c 0
 -291 -307 -299 -309 -309 -315 c 2
 -337 -333 l 1
 -343 -327 l 1
 -279 -288 l 2
 -257 -275 -247 -263 -216 -263 c 0
 -183 -263 -173 -294 -125 -270 c 0
 -108 -262 -88 -241 -77 -215 c 2
 139 293 l 1
 73 293 l 1
 97 333 l 1
 156 333 l 1
 202 441 l 1
 204 447 219 472 223 476 c 0
 231 483 245 498 262 505 c 2
 382 555 l 1
 397 575 407 583 427 597 c 2
 477 632 l 2
 500 649 517 653 546 660 c 0
 612 677 705 666 722 667 c 0
 749 668 759 638 787 640 c 0
 798 641 807 642 817 648 c 2
 844 666 l 1
 850 660 l 1
 787 622 l 2
 763 608 752 601 721 597 c 0
 688 591 598 592 563 597 c 0
 525 604 492 627 463 606 c 0
 440 589 428 574 418 548 c 1
 326 333 l 1
 357 333 l 1
 337 293 l 1
 309 293 l 1
-38 -212 m 2
 38 -178 l 2
 42 -176 62 -163 67 -158 c 1
 69 -154 80 -136 82 -130 c 1
 262 293 l 1
 186 293 l 1
 -1 -148 l 1
 -11 -173 -22 -188 -37 -209 c 0
 -38 -210 -38 -211 -38 -212 c 2
EndSplineSet
EndChar
StartChar: e.swash
Encoding: 309 -1
Width: 298
Flags: MW
HStem: -12 20
Fore
110 222 m 1
 137 213 155 210 183 217 c 0
 218 224 236 247 232 273 c 0
 228 295 203 307 187 305 c 0
 168 303 140 265 118 235 c 0
 115 231 113 226 110 222 c 1
137 173 m 0
 118 168 106 166 88 165 c 1
 70 89 91 7 162 47 c 2
 233 87 l 1
 233 78 l 1
 125 17 l 2
 102 3 88 -11 62 -12 c 0
 28 -13 12 27 10 63 c 0
 7 137 61 252 157 308 c 2
 193 330 l 2
 214 342 232 350 253 350 c 0
 276 350 291 325 293 300 c 0
 296 275 283 257 262 243 c 2
 230 223 l 1
 372 277 l 2
 383 281 389 289 390 301 c 0
 391 312 388 320 381 328 c 2
 366 345 l 1
 414 384 l 1
 428 369 l 2
 435 362 441 352 443 338 c 0
 448 307 425 284 396 273 c 2
 171 187 l 2
 163 183 150 177 137 173 c 0
EndSplineSet
EndChar
StartChar: L.swash
Encoding: 310 -1
Width: 276
Flags: MW
HStem: 598 70
Fore
95 52 m 1
 178 35 479 -177 594 -177 c 0
 780 -179 876 -90 1037 2 c 2
 1102 40 l 1
 1104 28 l 1
 1044 -10 l 2
 874 -116 775 -195 577 -227 c 0
 446 -249 110 9 29 5 c 2
 29 5 10 8 -4 3 c 1
 -3 18 l 1
 15 27 l 2
 32 36 25 30 37 42 c 1
 46 49 63 73 77 107 c 1
 238 482 l 2
 249 508 260 522 274 543 c 0
 292 569 307 578 332 596 c 2
 382 631 l 2
 405 647 435 667 452 667 c 0
 479 669 489 639 517 641 c 0
 528 642 537 643 547 649 c 2
 574 667 l 1
 580 661 l 1
 517 623 l 2
 494 609 484 597 453 597 c 0
 420 597 407 628 360 604 c 0
 336 592 326 574 315 549 c 2
 135 125 l 2
 123 96 108 68 95 52 c 1
EndSplineSet
EndChar
StartChar: t_t
Encoding: 311 -1
Width: 413
Flags: MW
HStem: -3 20
Fore
190 293 m 1
 106 93 l 2
 99 76 88 49 94 47 c 0
 100 44 107 51 112 57 c 2
 138 83 l 1
 144 77 l 1
 93 25 l 1
 73 6 49 -6 43 -2 c 0
 35 3 23 17 37 50 c 2
 143 293 l 1
 73 293 l 1
 242 418 l 1
 242 418 208 337 207 337 c 2
 292 333 l 1
 407 418 l 1
 407 418 371 337 370 337 c 2
 432 333 l 1
 413 293 l 1
 355 293 l 1
 271 93 l 2
 264 76 253 49 259 47 c 0
 265 44 272 51 277 57 c 2
 303 83 l 1
 309 77 l 1
 258 25 l 1
 238 6 214 -6 208 -2 c 0
 200 3 188 17 202 50 c 2
 308 293 l 1
 190 293 l 1
EndSplineSet
LCarets: 0 '    ' 1 0 
Ligature: 8 'liga' t t
EndChar
StartChar: f_t
Encoding: 312 -1
Width: 413
Flags: MW
HStem: -333 70 293 40<97 138 202 234 234 287 367 408> 597 70
Fore
234 293 m 2
 235 293 186 293 186 293 c 1
 -2 -148 l 1
 -12 -173 -23 -188 -37 -209 c 0
 -54 -235 -69 -244 -94 -262 c 2
 -144 -297 l 2
 -168 -313 -198 -332 -214 -333 c 0
 -242 -335 -252 -305 -279 -307 c 0
 -291 -307 -299 -309 -309 -315 c 2
 -337 -333 l 1
 -343 -327 l 1
 -279 -288 l 2
 -257 -275 -247 -263 -216 -263 c 0
 -183 -263 -168 -297 -123 -270 c 0
 -104 -259 -88 -240 -78 -215 c 1
 138 293 l 1
 73 293 l 1
 97 333 l 1
 154 333 l 1
 217 482 l 2
 228 507 239 522 253 542 c 0
 271 568 286 577 311 595 c 2
 361 630 l 2
 384 646 414 666 431 667 c 0
 458 668 468 638 496 640 c 0
 508 641 516 642 526 648 c 2
 553 666 l 1
 559 660 l 1
 496 622 l 2
 473 608 463 597 433 597 c 0
 399 597 386 627 339 603 c 0
 315 591 305 573 294 548 c 2
 202 333 l 1
 287 333 l 1
 403 418 l 1
 367 333 l 1
 428 333 l 1
 408 293 l 1
 351 293 l 1
 267 93 l 2
 260 76 248 49 255 47 c 0
 261 44 267 51 273 57 c 2
 299 83 l 1
 305 77 l 1
 253 25 l 2
 234 6 210 -6 203 -2 c 0
 196 3 184 17 198 50 c 2
 303 293 l 1
 234 293 l 2
EndSplineSet
LCarets: 0 '    ' 1 0 
Ligature: 8 'liga' f t
EndChar
StartChar: t.backjoin
Encoding: 313 -1
Width: 190
Flags: HMW
HStem: -3 20
Fore
218 485 m 1
 241 485 258 496 266 525 c 0
 269 537 266 553 254 553 c 0
 242 554 240 539 236 528 c 1
 218 485 l 1
123 369 m 1
 160 453 l 1
 97 472 25 511 -36 513 c 0
 -93 516 -159 522 -168 452 c 0
 -172 412 -162 402 -107 372 c 2
 -52 341 l 1
 -89 319 l 1
 -154 357 l 2
 -183 373 -208 384 -211 417 c 0
 -217 490 -99 562 -2 552 c 0
 57 545 124 507 177 492 c 1
 197 534 212 550 256 577 c 0
 288 596 297 551 292 527 c 0
 281 458 246 440 201 445 c 1
 154 333 l 1
 214 333 l 1
 195 293 l 1
 137 293 l 1
 53 92 l 2
 46 76 35 49 42 47 c 0
 48 44 54 51 60 57 c 2
 86 83 l 1
 92 77 l 1
 40 25 l 2
 21 6 -3 -6 -10 -2 c 0
 -18 3 -29 17 -15 50 c 2
 90 293 l 1
 91 293 21 293 21 293 c 1
 123 369 l 1
EndSplineSet
EndChar
StartChar: t.join
Encoding: 314 -1
Width: 167
Flags: HMW
HStem: -3 20
Fore
171 369 m 1
 178 388 l 1
 201 443 216 450 265 489 c 0
 295 513 363 558 398 561 c 0
 424 563 419 563 433 563 c 2
 463 563 l 1
 437 516 l 1
 399 516 l 2
 380 516 383 515 351 516 c 0
 312 517 287 495 263 466 c 0
 256 457 249 452 245 441 c 1
 200 333 l 1
 261 333 l 1
 242 293 l 1
 183 293 l 1
 100 92 l 2
 93 76 82 49 88 47 c 0
 94 44 101 51 107 57 c 2
 133 83 l 1
 138 77 l 1
 87 25 l 2
 68 6 43 -6 37 -2 c 0
 29 3 18 17 32 50 c 2
 138 293 l 1
 67 293 l 1
 171 369 l 1
EndSplineSet
EndChar
StartChar: t.alt
Encoding: 315 -1
Width: 241
Flags: HMW
HStem: -3 20
Fore
171 369 m 1
 178 388 l 1
 201 443 216 450 265 489 c 0
 295 513 288 507 303 517 c 2
 326 532 l 1
 332 522 l 1
 307 506 l 2
 293 497 275 481 271 477 c 0
 268 474 252 457 245 441 c 2
 200 333 l 1
 261 333 l 1
 242 293 l 1
 183 293 l 1
 100 92 l 2
 93 76 82 49 88 47 c 0
 94 44 101 51 107 57 c 2
 133 83 l 1
 138 77 l 1
 87 25 l 2
 68 6 43 -6 37 -2 c 0
 29 3 18 17 32 50 c 2
 138 293 l 1
 67 293 l 1
 171 369 l 1
EndSplineSet
EndChar
StartChar: m.swash
Encoding: 316 -1
Width: 587
Flags: MW
HStem: -5 20 287 45
Fore
302 268 m 1
 325 290 l 2
 350 315 374 329 408 332 c 0
 435 333 450 288 433 247 c 0
 406 179 338 43 379 47 c 0
 389 47 396 52 404 57 c 2
 511 120 l 2
 522 126 526 136 527 147 c 0
 527 158 525 167 518 175 c 2
 502 192 l 1
 551 231 l 1
 565 216 l 2
 571 209 578 198 580 185 c 0
 585 153 560 136 533 119 c 2
 376 25 l 2
 353 12 326 -12 313 -3 c 0
 252 40 436 287 362 287 c 0
 343 286 331 277 317 263 c 2
 317 263 291 237 290 237 c 1
 267 176 253 138 225 75 c 2
 207 33 l 1
 138 0 l 1
 220 197 l 1
 232 227 271 291 225 288 c 0
 208 287 198 280 187 268 c 2
 154 235 l 1
 72 37 l 1
 10 2 l 1
 102 233 l 1
 110 255 129 292 92 292 c 0
 82 292 75 293 67 287 c 2
 48 273 l 1
 45 282 l 1
 88 313 l 2
 109 328 120 341 147 340 c 0
 183 339 178 300 167 269 c 1
 195 295 l 2
 219 318 237 332 272 333 c 0
 307 335 311 303 302 268 c 1
EndSplineSet
EndChar
StartChar: y.alt
Encoding: 317 -1
Width: 297
Flags: MW
HStem: -320 38 317 20
VStem: -148 53
Fore
38 3 m 1
 19 13 11 51 25 85 c 0
 52 152 122 283 80 280 c 0
 70 279 63 276 55 270 c 2
 37 257 l 1
 35 268 l 1
 85 303 l 2
 107 318 132 344 145 335 c 0
 207 291 22 44 97 45 c 0
 116 45 127 54 142 68 c 2
 204 130 l 1
 264 278 l 1
 333 328 l 1
 148 -145 l 2
 107 -249 7 -317 -55 -320 c 0
 -114 -322 -146 -266 -147 -215 c 0
 -150 -141 -91 -97 -28 -48 c 2
 38 3 l 1
52 0 m 1
 -17 -57 l 2
 -61 -93 -95 -139 -95 -180 c 0
 -95 -226 -65 -286 -10 -283 c 0
 33 -280 69 -203 107 -108 c 2
 187 89 l 1
 133 42 l 2
 107 18 85 3 52 0 c 1
EndSplineSet
EndChar
StartChar: d.swash
Encoding: 318 -1
Width: 233
Flags: MW
HStem: 0 57 647 20
Fore
193 110 m 1
 113 30 l 2
 96 12 76 0 58 0 c 0
 28 0 16 34 13 63 c 0
 5 128 97 230 134 267 c 2
 152 286 l 1
 172 305 227 340 256 336 c 0
 267 334 277 329 285 323 c 1
 362 504 l 2
 370 522 374 527 388 547 c 0
 406 573 416 582 438 597 c 2
 488 632 l 2
 512 649 529 653 557 660 c 0
 600 671 652 666 668 667 c 0
 696 668 706 638 733 640 c 0
 745 641 753 642 763 648 c 2
 791 666 l 1
 797 660 l 1
 733 622 l 2
 710 608 698 601 668 597 c 0
 634 591 610 592 575 597 c 0
 537 604 503 627 474 606 c 0
 452 589 440 574 429 548 c 2
 233 93 l 2
 226 76 218 51 224 47 c 0
 229 43 237 51 242 57 c 2
 313 128 l 1
 319 122 l 1
 223 25 l 1
 203 6 179 -6 173 -2 c 0
 165 3 153 17 167 50 c 2
 193 110 l 1
206 138 m 1
 249 239 l 1
 255 263 251 291 213 291 c 0
 206 291 163 279 140 257 c 0
 92 211 59 162 69 108 c 0
 74 82 83 55 112 57 c 0
 123 57 130 62 138 71 c 1
 206 138 l 1
EndSplineSet
EndChar
StartChar: f.join
Encoding: 319 -1
Width: 133
Flags: MW
HStem: -333 70 293 40<97 139 203 247>
Fore
203 333 m 1
 267 333 l 1
 247 293 l 1
 186 293 l 1
 -1 -148 l 1
 -11 -173 -23 -188 -37 -209 c 0
 -54 -235 -69 -244 -94 -262 c 2
 -144 -297 l 2
 -168 -313 -198 -332 -214 -333 c 0
 -242 -335 -252 -305 -279 -307 c 0
 -291 -307 -299 -309 -309 -315 c 2
 -337 -333 l 1
 -343 -327 l 1
 -279 -288 l 2
 -257 -275 -247 -263 -216 -263 c 0
 -183 -263 -173 -294 -125 -270 c 0
 -108 -262 -88 -241 -77 -215 c 2
 139 293 l 1
 73 293 l 1
 97 333 l 1
 156 333 l 1
 202 441 l 1
 204 447 219 472 223 476 c 0
 231 483 245 498 262 505 c 2
 399 563 l 1
 418 563 l 1
 303 511 l 2
 298 509 278 497 274 491 c 0
 272 487 260 469 258 463 c 1
 203 333 l 1
EndSplineSet
EndChar
StartChar: g.alt
Encoding: 320 -1
Width: 328
Flags: MW
HStem: -320 38 0 57 316 20
VStem: -148 53
Fore
198 114 m 1
 198 115 113 30 113 30 c 1
 96 12 76 0 58 0 c 0
 56 0 54 0 52 1 c 1
 -17 -57 l 2
 -60 -94 -95 -139 -95 -180 c 0
 -95 -226 -65 -286 -10 -283 c 0
 33 -280 70 -201 107 -108 c 1
 198 114 l 1
245 228 m 2
 256 253 258 291 213 291 c 0
 206 291 163 279 141 258 c 0
 94 213 59 162 69 108 c 0
 74 82 83 55 112 57 c 0
 123 57 130 62 138 71 c 2
 208 141 l 1
 222 175 245 228 245 228 c 2
147 -145 m 1
 148 -145 l 1
 106 -250 7 -317 -55 -320 c 0
 -114 -322 -146 -266 -147 -215 c 0
 -150 -141 -91 -97 -28 -48 c 2
 40 5 l 1
 23 16 15 41 13 63 c 0
 5 128 68 202 133 267 c 2
 145 278 l 1
 179 313 228 340 256 336 c 0
 302 329 317 285 303 249 c 2
 147 -145 l 1
EndSplineSet
EndChar
StartChar: n.swash
Encoding: 325 -1
Width: 473
Flags: MW
HStem: -3 20 292 48
Fore
158 246 m 1
 207 292 l 2
 232 316 256 331 290 333 c 0
 317 335 331 289 315 248 c 0
 288 181 219 45 261 48 c 0
 271 49 277 53 286 58 c 2
 392 122 l 2
 403 128 407 138 408 149 c 0
 409 160 407 168 399 177 c 2
 384 193 l 1
 432 233 l 1
 447 218 l 2
 453 211 460 200 462 187 c 0
 466 155 442 137 414 121 c 2
 258 27 l 2
 235 13 208 -11 195 -2 c 0
 133 42 318 289 243 288 c 0
 224 288 212 279 198 265 c 2
 143 208 l 1
 72 37 l 1
 10 2 l 1
 102 233 l 1
 110 255 129 292 92 292 c 0
 82 292 75 293 67 287 c 2
 48 273 l 1
 45 282 l 1
 88 313 l 2
 109 328 120 341 147 340 c 0
 190 338 176 285 162 253 c 1
 158 246 l 1
EndSplineSet
EndChar
StartChar: H.swash2
Encoding: 326 -1
Width: 588
Flags: MW
HStem: -245 74<-153.5 -122> 196 46<382 383> 597 70
Fore
403 242 m 1
 506 482 l 2
 517 507 528 522 542 542 c 0
 559 568 574 577 599 595 c 2
 649 630 l 2
 673 646 703 666 719 667 c 0
 747 668 757 638 784 640 c 0
 796 641 804 642 814 648 c 2
 842 666 l 1
 848 660 l 1
 784 622 l 2
 762 608 752 597 721 597 c 0
 688 597 674 627 628 603 c 0
 603 591 593 573 583 548 c 1
 450 242 l 1
 465 242 480 244 497 251 c 2
 551 274 l 1
 557 267 l 1
 477 228 l 2
 462 220 448 213 436 209 c 1
 386 93 l 2
 379 77 368 52 377 47 c 0
 382 43 390 51 396 57 c 2
 418 79 l 1
 424 73 l 1
 376 25 l 2
 357 6 332 -6 326 -2 c 0
 318 3 307 17 321 50 c 2
 383 196 l 1
 381 196 379 195 377 195 c 0
 312 188 264 212 207 219 c 1
 89 -60 l 1
 79 -85 67 -100 53 -121 c 0
 36 -147 21 -156 -4 -173 c 2
 -54 -208 l 2
 -78 -225 -107 -245 -137 -245 c 0
 -177 -245 -190 -216 -227 -218 c 0
 -238 -219 -247 -221 -257 -227 c 2
 -286 -244 l 1
 -290 -238 l 1
 -227 -200 l 2
 -194 -180 -173 -171 -134 -171 c 0
 -93 -171 -79 -206 -33 -182 c 0
 -8 -169 2 -152 12 -127 c 1
 159 220 l 1
 125 217 103 207 70 193 c 2
 17 169 l 1
 11 177 l 1
 90 216 l 2
 124 233 148 251 176 262 c 0
 177 262 271 486 271 486 c 1
 334 521 l 1
 334 521 228 271 228 270 c 1
 237 270 l 0
 298 265 339 242 403 242 c 1
EndSplineSet
EndChar
StartChar: longs.join
Encoding: 327 -1
Width: 133
Flags: MW
HStem: -333 70 293 40<97 139>
Fore
139 293 m 1
 73 293 l 1
 97 333 l 1
 156 333 l 1
 202 441 l 1
 204 447 219 472 223 476 c 0
 231 483 245 498 262 505 c 2
 399 563 l 1
 418 563 l 1
 303 511 l 2
 298 509 278 497 274 491 c 0
 272 487 260 469 258 463 c 1
 -1 -148 l 1
 -11 -173 -23 -188 -37 -209 c 0
 -54 -235 -69 -244 -94 -262 c 2
 -144 -297 l 2
 -168 -313 -198 -332 -214 -333 c 0
 -242 -335 -252 -305 -279 -307 c 0
 -291 -307 -299 -309 -309 -315 c 2
 -337 -333 l 1
 -343 -327 l 1
 -279 -288 l 2
 -257 -275 -247 -263 -216 -263 c 0
 -183 -263 -173 -294 -125 -270 c 0
 -108 -262 -88 -241 -77 -215 c 2
 139 293 l 1
EndSplineSet
EndChar
